<?xml version="1.0" encoding="UTF-8"?><svg id="Layer_2" xmlns="http://www.w3.org/2000/svg" viewBox="0 0 213.44 558.1"><defs><style>.cls-1,.cls-2,.cls-3,.cls-4,.cls-5,.cls-6{fill-rule:evenodd;stroke-width:0px;}.cls-7{fill:none;stroke:#e97a0f;stroke-linecap:round;stroke-linejoin:round;stroke-width:.96px;}.cls-2{fill:#e97a0f;}.cls-3{fill:#262626;}.cls-4{fill:#fff;}.cls-5{fill:#f6851f;}.cls-6{fill:#7b3512;}</style></defs><g id="Layer_1-2"><path class="cls-1" d="m131.69,37.92c.56.57,1.12,1.13,1.68,1.7-1.26,1.78-2.54,3.54-3.83,5.28l-.03.04c-.51.68-1.01,1.36-1.52,2.04h0c-4.1,5.43-8.42,10.8-12.41,16.25-3.76,5.13-7.15,10.34-10.53,15.56-1.76,2.73-3.69,5.47-4.35,8.38-.28,1.22-.31,2.71,1.43,3.6-.42-.09-.65-.42-.88-.61-.66-.55-1.28-1.12-1.89-1.7-2.37-2.22-4.61-4.49-6.84-6.76-8.68-8.85-17.16-17.77-24.58-27.01-.5.21-1.02.42-1.57.58-.34.1-.69.19-1.06.24-2.94.43-2.45-2.25-2.26-3.18.06-.29.13-.57.21-.86.1-.35.21-.69.33-1.04.15-.45.32-.89.5-1.33.21-.53.44-1.05.68-1.57.31-.69.64-1.38.99-2.06.44-.88.9-1.75,1.37-2.63,7.22-13.41,16.04-26.5,24.03-39.76h0c.62-1.02,1.23-2.05,1.84-3.08.62.62,1.25,1.24,1.87,1.86-.06.1-.11.19-.17.29-.12.2.07.47.21.61,1.17,1.19,2.35,2.38,3.53,3.57.12.12.39.27.51.07.07-.11.13-.21.2-.32.52.51,1.04,1.02,1.56,1.53-.71,1.18-1.43,2.35-2.15,3.52,8.03,8.71,16.14,17.39,24.09,26.12,1.08-1.7,2.16-3.41,3.22-5.13.56.55,1.11,1.1,1.67,1.65-.13.16-.32.4-.4.52-.15.23-.16.59.04.8,1.14,1.17,2.29,2.34,3.43,3.51.2.21.52.1.67-.12.09-.13.31-.4.44-.54h0Z"/><path class="cls-4" d="m79.15,38.04c.14-.23.11-.57-.09-.75-1.19-1.13-2.37-2.26-3.55-3.4-.18-.18-.48-.13-.61.09-.65,1.06-1.3,2.11-1.94,3.18-.14.23-.09.55.1.73,1.17,1.13,2.35,2.26,3.53,3.38.18.17.46.15.6-.06.65-1.05,1.3-2.1,1.96-3.15h0Z"/><path class="cls-4" d="m105.58,63.09c.18-.31.23-.77-.06-1.05-7.67-7.16-15.39-14.28-23-21.48-.29-.27-.74-.18-.94.13-3.36,5.39-6.87,10.75-9.33,16.52-.13.31.16.68.39.89,7.84,7.2,15.73,14.38,24.11,21.11.17.13.46.18.55-.05,2.12-5.59,5.28-10.81,8.28-16.07h0Z"/><path class="cls-4" d="m75.55,43.87c.13-.22.06-.54-.12-.71-1.18-1.12-2.35-2.24-3.52-3.36-.17-.16-.45-.15-.57.06-.57.96-1.12,1.92-1.67,2.88-.12.22-.04.52.14.68,1.17,1.11,2.34,2.22,3.51,3.32.16.15.43.19.56-.02.55-.95,1.12-1.9,1.69-2.85h0Z"/><path class="cls-4" d="m72.52,49.08c.12-.22,0-.51-.17-.66-1.17-1.1-2.34-2.2-3.5-3.3-.15-.14-.41-.18-.52.02-.45.83-.88,1.66-1.31,2.5-.1.21.03.48.18.62,1.16,1.09,2.32,2.18,3.48,3.26.13.12.4.23.51.03.43-.83.87-1.65,1.32-2.47h0Z"/><path class="cls-4" d="m70.21,53.54c.1-.21-.07-.47-.22-.6-1.16-1.08-2.32-2.16-3.47-3.25-.11-.11-.37-.23-.46-.03-.3.67-.59,1.34-.84,2.03-.07.2.11.43.24.55,1.14,1.08,2.29,2.15,3.44,3.22.08.08.37.28.44.09.27-.68.56-1.34.87-2h0Z"/><path class="cls-4" d="m68.8,57.09c.06-.2-.16-.42-.29-.54-1.14-1.07-2.28-2.14-3.42-3.21-.06-.06-.33-.27-.38-.09-.13.48-.24.97-.28,1.46-.02.18.19.36.3.47,1.12,1.07,2.25,2.14,3.38,3.21.03.03.35.3.37.16.06-.49.18-.98.33-1.46h0Z"/><path class="cls-4" d="m68.45,59.58c-.02-.19-.23-.34-.36-.46-1.12-1.07-2.24-2.14-3.35-3.22-.02-.02-.3-.21-.29-.17.06.29.17.58.37.81.12.13.25.25.38.38,1.09,1.09,2.18,2.17,3.28,3.25.09.09.35.35.27.25-.18-.24-.27-.54-.3-.84h0Z"/><path class="cls-4" d="m69.33,60.86c-.18-.07-.31-.25-.44-.38-1.08-1.09-2.16-2.18-3.23-3.28-.08-.08-.29-.3-.18-.27.36.11.75.1,1.12.06.18-.02.35.17.46.29,1.04,1.13,2.08,2.25,3.13,3.37.02.02.29.35.17.36-.35.02-.7,0-1.02-.14h0Z"/><path class="cls-4" d="m71.62,60.79c-.2.05-.41-.18-.53-.3-1.03-1.13-2.06-2.28-3.07-3.43-.07-.08-.24-.33-.06-.39.67-.21,1.33-.49,1.97-.78.19-.09.43.04.55.2.96,1.2,1.94,2.4,2.93,3.58.09.11.24.4.04.49-.6.25-1.21.47-1.83.64h0Z"/><path class="cls-4" d="m100.04,87.03c.01-.09-.05-.19-.13-.24-.64-.37-1.25-.8-1.85-1.23-.05-.04-.22-.11-.22.01-.01.39.02.79.1,1.17.03.12.14.22.24.29.55.4,1.12.8,1.72,1.13.05.03.13.02.12-.05-.03-.36-.01-.72.03-1.08h0Z"/><path class="cls-4" d="m100.19,88.93c-.03-.08-.09-.14-.16-.18-.57-.32-1.11-.7-1.64-1.09-.02-.01-.18-.11-.14-.03.16.31.36.58.61.82.09.09.19.16.28.24.47.37.95.74,1.47,1.05.05.03.06,0,.03-.03-.19-.23-.34-.5-.45-.78h0Z"/><path class="cls-4" d="m101.26,90.27c-.07-.04-.13-.09-.2-.13-.49-.31-.94-.67-1.38-1.04-.02-.02-.13-.12-.05-.07.37.21.76.36,1.16.48.12.04.24.11.33.2.38.36.76.73,1.17,1.06.05.04-.06,0-.07,0-.34-.13-.67-.29-.96-.5h0Z"/><path class="cls-4" d="m110.74,67.6c.11-.17.18-.46.02-.62-.85-.81-1.7-1.61-2.56-2.41-.17-.16-.41,0-.51.17-.6,1.03-1.21,2.05-1.8,3.08-.1.18-.13.47.04.62.82.75,1.65,1.5,2.47,2.26.16.14.37-.02.46-.16.63-.98,1.26-1.95,1.89-2.93h0Z"/><path class="cls-4" d="m107.31,72.95c.09-.15.15-.4,0-.54-.81-.72-1.62-1.45-2.43-2.17-.16-.14-.37-.02-.46.13-.51.89-1.01,1.78-1.51,2.68-.09.17-.08.42.07.55.78.67,1.56,1.34,2.35,2,.14.12.32,0,.4-.13.52-.84,1.06-1.68,1.59-2.52h0Z"/><path class="cls-4" d="m104.45,77.52c.08-.13.1-.35-.03-.46-.78-.63-1.54-1.27-2.31-1.92-.14-.11-.33-.05-.41.1-.4.76-.8,1.52-1.17,2.29-.08.15-.03.37.1.48.73.59,1.47,1.17,2.22,1.74.12.09.28,0,.34-.11.41-.71.83-1.42,1.26-2.12h0Z"/><path class="cls-4" d="m102.24,81.37c.06-.12.06-.29-.06-.38-.74-.54-1.46-1.1-2.18-1.66-.12-.09-.29-.07-.36.07-.28.63-.55,1.26-.79,1.91-.05.14.03.32.14.41.68.51,1.37,1.02,2.08,1.5.1.07.23,0,.28-.09.28-.59.58-1.18.88-1.75h0Z"/><path class="cls-4" d="m95.1,12.36c.14-.23.09-.56-.08-.76-1.12-1.27-2.24-2.53-3.36-3.8-.15-.17-.44-.22-.57,0-.65,1.06-1.3,2.11-1.94,3.17-.15.24-.12.6.06.81,1.1,1.28,2.21,2.56,3.32,3.84.17.2.46.15.59-.06.66-1.07,1.33-2.13,1.99-3.2h0Z"/><path class="cls-4" d="m119.41,40.29c.23-.35.28-.88-.01-1.21-7.01-8.01-14.13-15.94-21.22-23.9-.25-.28-.67-.24-.87.06-4.35,7.02-8.74,14.02-13,21.09-.21.34-.14.84.16,1.12,7.59,7.16,15.27,14.24,22.86,21.41.18.17.57.16.69-.07,3.28-6.4,7.49-12.39,11.4-18.5h0Z"/><path class="cls-4" d="m91.22,18.6c.15-.24.15-.6-.04-.82-1.11-1.28-2.21-2.55-3.31-3.83-.18-.21-.47-.15-.61.07-.74,1.2-1.48,2.39-2.22,3.59-.15.25-.16.62.04.85,1.11,1.26,2.22,2.52,3.33,3.78.18.21.48.12.61-.09.73-1.18,1.47-2.36,2.2-3.54h0Z"/><path class="cls-4" d="m87.05,25.32c.15-.24.16-.61-.04-.83-1.12-1.24-2.24-2.49-3.35-3.73-.19-.21-.49-.11-.63.11-.75,1.22-1.51,2.44-2.26,3.65-.15.24-.15.61.05.83,1.14,1.2,2.28,2.4,3.43,3.6.19.2.48.12.61-.1.73-1.18,1.46-2.36,2.19-3.53h0Z"/><path class="cls-4" d="m82.99,31.88c.14-.23.12-.58-.08-.78-1.16-1.17-2.32-2.35-3.48-3.53-.19-.19-.49-.11-.62.1-.7,1.13-1.39,2.25-2.1,3.38-.14.23-.12.58.08.77,1.18,1.14,2.37,2.27,3.56,3.41.19.18.49.12.62-.1.68-1.08,1.34-2.17,2.01-3.25h0Z"/><path class="cls-4" d="m125.38,46.78c.16-.22.21-.58.02-.8-1.02-1.18-2.04-2.36-3.06-3.54-.18-.21-.47-.09-.6.11-.76,1.15-1.53,2.3-2.3,3.45-.15.22-.18.56,0,.78.97,1.15,1.93,2.3,2.89,3.46.17.2.46.11.59-.08.82-1.12,1.64-2.24,2.45-3.37h0Z"/><path class="cls-4" d="m129.75,40.65c.16-.23.2-.61,0-.83-1.12-1.18-2.24-2.35-3.36-3.53-.19-.2-.49-.09-.62.12-.77,1.19-1.54,2.38-2.32,3.56-.15.23-.19.59,0,.8,1.05,1.18,2.09,2.37,3.13,3.55.19.21.49.1.64-.1.85-1.19,1.7-2.38,2.53-3.58h0Z"/><path class="cls-4" d="m120.84,52.99c.15-.2.19-.53.02-.74-.94-1.13-1.88-2.26-2.83-3.39-.16-.2-.44-.1-.56.09-.7,1.05-1.39,2.1-2.09,3.15-.13.2-.15.52.01.71.91,1.07,1.82,2.14,2.72,3.22.15.18.41.12.53-.05.73-.99,1.46-1.99,2.18-2.98h0Z"/><path class="cls-4" d="m116.9,58.39c.13-.18.13-.47-.01-.64-.89-1.04-1.79-2.08-2.69-3.11-.15-.17-.39-.12-.51.06-.57.88-1.13,1.77-1.68,2.66-.11.19-.08.45.07.61.88.95,1.76,1.91,2.64,2.87.13.14.34.14.45-.01.57-.82,1.15-1.62,1.73-2.43h0Z"/><path class="cls-4" d="m113.9,62.68c.1-.16.04-.39-.08-.52-.87-.91-1.75-1.82-2.63-2.73-.12-.12-.34-.16-.43.01-.45.78-.88,1.58-1.34,2.36-.12.2-.17.52,0,.69.87.83,1.74,1.65,2.6,2.49.17.17.41-.03.51-.18.45-.71.89-1.42,1.36-2.12h0Z"/><path class="cls-4" d="m100.75,84.52c.04-.11,0-.24-.09-.31-.69-.45-1.37-.93-2.03-1.42-.09-.07-.25-.09-.29.04-.15.5-.28,1.01-.37,1.53-.02.13.09.27.19.34.63.45,1.26.89,1.92,1.29.08.05.18.02.2-.07.13-.48.3-.95.48-1.4h0Z"/><path class="cls-4" d="m98.02,7.62c.13-.21,0-.49-.15-.65-1.17-1.21-2.33-2.41-3.5-3.63-.12-.12-.4-.29-.52-.08-.5.82-1,1.64-1.5,2.46-.14.23-.04.55.12.73,1.13,1.26,2.26,2.51,3.39,3.77.15.16.42.21.56,0,.53-.86,1.07-1.73,1.6-2.59h0Z"/><path class="cls-4" d="m98.02,7.62c.13-.21,0-.49-.15-.65-1.17-1.21-2.33-2.41-3.5-3.63-.12-.12-.4-.29-.52-.08-.5.82-1,1.64-1.5,2.46-.14.23-.04.55.12.73,1.13,1.26,2.26,2.51,3.39,3.77.15.16.42.21.56,0,.53-.86,1.07-1.73,1.6-2.59h0Z"/><path class="cls-1" d="m145.04,62.09c-8.23-10.82-16.73-21.57-24.96-32.4-.63-.87-2.41-.59-3.57-.3-3.02.76-5.68,2.08-8.17,3.29-11,5.35-20.74,11.52-31.16,17.22-3.12,1.71-6.27,3.49-9.86,4.88-.91.35-2.93,1.25-3.96.26,1.47,1.49,2.95,2.98,4.42,4.47,8.84,8.91,17.75,17.73,26.86,26.58,2.17,2.23,7.82-.51,9.82-1.46.63-.3,1.25-.61,1.86-.92,9.9-5.11,18.09-11.26,27.13-16.85,2.51-1.55,5.07-3.2,8.1-4.42.81-.32,2.7-1.07,3.49-.35h0Z"/><path class="cls-4" d="m107.28,42.68c.21-.1.34-.35.17-.55-1.04-1.26-2.07-2.53-3.1-3.79-.18-.22-.53-.32-.78-.18-1.18.61-2.35,1.23-3.52,1.86-.24.13-.31.43-.13.65,1.03,1.23,2.05,2.46,3.09,3.69.18.21.52.21.74.09,1.18-.59,2.35-1.18,3.53-1.76h0Z"/><path class="cls-4" d="m122.92,61.09c.26-.16.45-.5.24-.76-4.39-5.05-8.89-10.03-13.18-15.15-.23-.28-.73-.26-1.05-.11-7.5,3.61-14.79,7.56-22.28,11.19-.28.14-.52.46-.27.72,5.28,5.44,10.86,10.66,16.26,16,.25.25.71.24,1.01.07,6.55-3.83,12.84-7.99,19.27-11.97h0Z"/><path class="cls-4" d="m99.91,75.17c.24-.13.26-.37.1-.53-5.58-5.45-11.37-10.81-16.8-16.32-.16-.16-.51-.19-.75-.08-2.98,1.36-7.16,3.61-11.04,3.64-.19,0,.02.23.06.27,5.74,5.66,11.61,11.26,17.47,16.86.1.1.34.32.56.3,3.86-.33,7.57-2.6,10.41-4.14h0Z"/><path class="cls-4" d="m100.52,46.08c.21-.11.37-.36.2-.57-1.03-1.21-2.06-2.42-3.09-3.63-.19-.22-.55-.27-.8-.14-1.22.66-2.44,1.33-3.66,2.01-.24.13-.33.42-.15.64,1.02,1.18,2.04,2.35,3.07,3.52.18.21.53.19.76.07,1.22-.63,2.45-1.27,3.67-1.9h0Z"/><path class="cls-4" d="m93.59,49.68c.2-.1.38-.36.19-.56-1.03-1.15-2.05-2.3-3.07-3.46-.19-.22-.55-.25-.8-.11-1.2.66-2.4,1.33-3.61,1.99-.23.13-.32.41-.14.61,1.01,1.12,2.02,2.24,3.05,3.35.18.2.52.18.74.07,1.21-.62,2.42-1.25,3.62-1.88h0Z"/><path class="cls-4" d="m86.82,53.16c.19-.1.35-.34.17-.53-1.02-1.09-2.03-2.19-3.03-3.29-.19-.2-.53-.24-.77-.11-1.12.61-2.24,1.21-3.37,1.81-.22.12-.28.38-.11.56.99,1.06,1.99,2.12,3,3.18.17.18.49.19.71.08,1.14-.56,2.27-1.12,3.4-1.7h0Z"/><path class="cls-4" d="m80.57,56.23c.19-.09.29-.31.13-.48-1-1.03-1.99-2.07-2.98-3.12-.17-.18-.49-.24-.71-.12-.97.5-1.95.99-2.94,1.46-.21.1-.2.34-.06.49.97,1.01,1.95,2.01,2.93,3,.16.16.44.21.64.12,1-.43,2-.89,2.99-1.35h0Z"/><path class="cls-4" d="m75.17,58.58c.19-.07.2-.27.06-.41-.97-.98-1.93-1.96-2.9-2.94-.15-.15-.42-.25-.63-.16-.77.34-1.54.66-2.32.96-.19.07-.08.29.02.39.94.95,1.88,1.89,2.82,2.83.13.13.36.24.55.18.81-.25,1.61-.54,2.4-.85h0Z"/><path class="cls-4" d="m70.97,59.9c.18-.04.05-.24-.02-.31-.93-.92-1.85-1.85-2.77-2.77-.12-.12-.34-.27-.51-.22-.5.14-1,.25-1.52.29-.14.01.08.25.11.28.89.89,1.77,1.77,2.66,2.66.1.1.27.26.43.26.54,0,1.09-.07,1.62-.18h0Z"/><path class="cls-4" d="m101.19,83.6c.22-.1.08-.36-.04-.48-1.11-1.09-2.23-2.17-3.34-3.25-.15-.15-.42-.25-.62-.16-.74.33-1.5.64-2.27.92-.2.07-.06.3.04.4,1.12,1.07,2.24,2.15,3.35,3.23.14.14.41.32.62.24.77-.27,1.52-.57,2.26-.9h0Z"/><path class="cls-4" d="m97.14,85.02c.21-.05-.04-.33-.1-.39-1.11-1.07-2.23-2.15-3.35-3.22-.13-.12-.37-.28-.56-.24-.56.14-1.13.24-1.71.27-.17,0,.08.27.12.31,1.11,1.06,2.22,2.13,3.32,3.19.13.12.35.34.55.33.58-.02,1.16-.11,1.73-.25h0Z"/><path class="cls-4" d="m94.15,85.14c.11.03-.16-.27-.18-.29-1.1-1.06-2.2-2.12-3.3-3.18-.12-.12-.3-.29-.47-.33-.37-.1-.73-.27-1.01-.54-.02-.02.17.16.2.19,1.08,1.06,2.16,2.11,3.24,3.17.15.14.29.29.44.43.3.27.68.46,1.07.56h0Z"/><path class="cls-4" d="m128.4,67.11c.22-.14.2-.43.05-.61-.97-1.14-1.94-2.28-2.91-3.42-.16-.18-.44-.19-.63-.07-.99.62-1.97,1.25-2.95,1.88-.19.12-.28.37-.12.55,1,1.13,2,2.26,2.99,3.4.17.19.48.26.7.12.96-.62,1.92-1.25,2.88-1.87h0Z"/><path class="cls-4" d="m122.88,70.7c.22-.14.23-.43.06-.62-1-1.13-2.01-2.27-3.02-3.39-.17-.19-.47-.17-.67-.05-1.03.67-2.06,1.33-3.1,2-.19.12-.29.38-.12.56,1.04,1.12,2.07,2.24,3.1,3.37.18.19.5.25.73.11,1.01-.66,2.02-1.32,3.03-1.98h0Z"/><path class="cls-4" d="m117.14,74.44c.22-.14.23-.43.06-.62-1.04-1.12-2.08-2.25-3.13-3.36-.17-.19-.49-.18-.69-.05-1.03.66-2.06,1.31-3.1,1.96-.19.12-.28.37-.11.55,1.07,1.11,2.14,2.22,3.2,3.34.18.19.5.26.73.11,1.02-.64,2.03-1.28,3.04-1.93h0Z"/><path class="cls-4" d="m111.45,78.02c.22-.14.21-.42.04-.59-1.07-1.11-2.15-2.22-3.23-3.33-.17-.18-.48-.19-.69-.06-.98.6-1.97,1.19-2.96,1.76-.2.11-.24.36-.07.52,1.1,1.1,2.19,2.2,3.28,3.3.17.18.49.27.71.14.98-.57,1.95-1.15,2.91-1.74h0Z"/><path class="cls-4" d="m138.54,53.83c.1.04-.12-.27-.13-.29-3.44-4.47-6.96-8.9-10.39-13.38-.15-.2-.32-.45-.54-.6-3.34-2.21-11.2,2.13-14.05,3.41-.3.14-.5.47-.28.73,4.14,5.06,8.47,9.99,12.71,14.99.2.24.62.23.88.07,2.23-1.33,8.7-6.17,11.8-4.94h0Z"/><path class="cls-4" d="m123.05,36.7c.2-.02,0-.32-.05-.39-1.07-1.41-2.15-2.82-3.22-4.23-.11-.15-.37-.47-.58-.44-.67.1-1.34.26-1.99.45-.24.07-.01.44.06.54,1.06,1.38,2.12,2.76,3.18,4.14.12.16.36.34.57.29.67-.16,1.35-.3,2.03-.36h0Z"/><path class="cls-4" d="m118.89,37.69c.22-.07.16-.32.05-.46-1.06-1.36-2.11-2.73-3.16-4.09-.14-.18-.43-.43-.67-.34-.91.34-1.8.7-2.69,1.08-.25.11-.16.43-.03.6,1.04,1.33,2.09,2.67,3.13,4,.14.18.43.29.65.2.9-.35,1.8-.69,2.72-.99h0Z"/><path class="cls-4" d="m113.52,39.78c.22-.09.27-.34.12-.52-1.04-1.31-2.08-2.63-3.12-3.95-.16-.2-.48-.37-.74-.25-1.07.5-2.14,1.02-3.2,1.55-.25.13-.25.43-.09.64,1.03,1.28,2.07,2.57,3.11,3.85.16.2.48.24.71.14,1.07-.5,2.14-.99,3.22-1.46h0Z"/><path class="cls-4" d="m143.22,59.9s-.17-.3-.2-.34c-.87-1.14-1.74-2.29-2.62-3.43-.08-.1-.19-.28-.32-.34-.3-.13-.64-.13-.96-.11-.14.01.05.28.07.31.88,1.15,1.76,2.29,2.64,3.44.08.11.29.38.45.37.31-.03.65-.03.95.1h0Z"/><path class="cls-4" d="m141.11,60.06c.17-.05-.06-.38-.11-.44-.88-1.15-1.77-2.29-2.65-3.44-.08-.11-.26-.29-.42-.24-.57.17-1.12.39-1.67.62-.17.07-.09.3,0,.4.9,1.15,1.79,2.3,2.69,3.45.1.13.35.36.53.28.53-.24,1.08-.45,1.63-.62h0Z"/><path class="cls-4" d="m137.87,61.45c.2-.1.06-.39-.04-.51-.9-1.15-1.81-2.3-2.72-3.45-.11-.14-.33-.26-.51-.17-.75.38-1.49.77-2.23,1.18-.18.1-.18.33-.06.47.93,1.14,1.85,2.29,2.77,3.44.13.16.4.32.6.21.72-.41,1.44-.8,2.17-1.18h0Z"/><path class="cls-4" d="m133.37,64c.21-.13.15-.41.02-.57-.93-1.15-1.87-2.29-2.81-3.44-.14-.17-.39-.22-.58-.11-.89.53-1.78,1.07-2.67,1.62-.18.11-.25.35-.1.53.96,1.14,1.92,2.28,2.88,3.43.15.18.45.29.66.15.86-.54,1.73-1.08,2.61-1.61h0Z"/><path class="cls-4" d="m106.04,81.17c.22-.12.16-.39,0-.55-1.1-1.1-2.2-2.2-3.3-3.29-.17-.16-.46-.22-.67-.1-.89.49-1.78.96-2.69,1.42-.2.1-.17.33-.02.47,1.11,1.08,2.23,2.17,3.33,3.26.16.16.46.29.68.18.89-.45,1.78-.91,2.65-1.39h0Z"/><path class="cls-1" d="m167.46,91.02c-15.77-19.82-31.75-41.38-47.52-61.2-.3,4.34-6.35,13.42-10.68,19.14-3.79,5-7.56,10.01-11.46,14.93-14.37,18.14-29.45,35.82-42.79,54.7-6.15,8.71-12.45,17.55-11.88,28.6.14,2.73.76,5.45,2.03,7.91.92,1.8,6.14,5.64,7.65,7.03,21.17,11.69,38.29,21.63,60.28,31.88-.95-.92-1.85-1.89-2.63-2.94-1-1.35-1.93-2.96-1.97-4.66-.03-1.39.8-2.52,1.49-3.69,1.15-1.96,2.37-3.89,3.62-5.8,2.82-4.33,5.76-8.58,8.74-12.81,11.88-16.91,24.52-33.35,35.61-50.76,4.15-6.52,10.71-18.07,9.51-22.32h0Z"/><path class="cls-4" d="m115.39,60.64c.2-.26-.04-.69-.21-.9-1.6-1.84-3.22-3.66-4.86-5.46-.15-.17-.55-.44-.74-.18-.72.94-1.42,1.89-2.13,2.84-.2.27,0,.69.19.91,1.65,1.79,3.29,3.6,4.9,5.43.16.18.56.44.76.17.69-.94,1.37-1.88,2.08-2.81h0Z"/><path class="cls-4" d="m149.91,104.32c.23-.41.13-.99-.16-1.36-9.82-12.67-19.51-25.43-29.9-37.76-.2-.24-.82-.73-1.13-.32-4.92,6.55-9.8,13.13-14.85,19.61-.35.45-.13,1.14.22,1.53,10.86,12.01,21.05,24.45,31.7,36.6.29.33.82.36,1.09,0,4.44-5.96,9.36-11.92,13.02-18.3h0Z"/><path class="cls-4" d="m133.4,127.28c.3-.39.26-1-.07-1.37-10.73-12.11-20.96-24.54-31.86-36.54-.32-.35-.97-.58-1.32-.13-6.01,7.68-12.05,15.34-17.95,23.08-.35.47-.16,1.18.22,1.58,11.05,11.98,21.56,24.35,32.75,36.24.33.35.88.33,1.16-.05,5.64-7.63,11.37-15.21,17.07-22.81h0Z"/><path class="cls-4" d="m112.79,154.9c.29-.4.22-1.01-.12-1.36-11.27-11.82-21.82-24.16-32.91-36.11-.33-.35-.99-.57-1.34-.11-5.38,7.18-10.65,14.44-15.44,21.93-.29.45.07,1.1.42,1.44,11.6,11.19,22.82,22.72,35.01,33.43.23.2.78.47,1,.11,4.12-6.61,8.75-12.99,13.38-19.33h0Z"/><path class="cls-4" d="m97.98,176.55c.1-.17-.52-.64-.63-.73-12.4-10.41-23.85-21.66-35.63-32.6-.16-.15-.87-.74-1.11-.38-4.79,7.05-5.95,17.53.77,23.92.48.45,1.06.86,1.66,1.19,12.82,7.02,25.67,14.01,38.74,20.67.36.18.43.11.14-.15-3.31-2.95-6.31-7.79-3.94-11.93h0Z"/><path class="cls-4" d="m111.35,66.09c.21-.28,0-.72-.19-.94-1.63-1.82-3.27-3.63-4.94-5.41-.18-.19-.58-.4-.79-.12-.79,1.04-1.59,2.08-2.4,3.12-.21.27-.04.71.17.93,1.69,1.78,3.35,3.57,5,5.38.18.2.59.41.8.13.78-1.03,1.56-2.06,2.34-3.09h0Z"/><path class="cls-4" d="m106.83,72.03c.22-.28.04-.73-.17-.96-1.66-1.81-3.33-3.6-5.03-5.38-.2-.21-.61-.37-.83-.1-.87,1.11-1.74,2.21-2.61,3.31-.22.28-.07.72.16.95,1.71,1.77,3.4,3.57,5.07,5.38.2.22.61.39.84.1.86-1.1,1.71-2.21,2.56-3.31h0Z"/><path class="cls-4" d="m101.9,78.37c.23-.29.07-.74-.15-.98-1.68-1.81-3.38-3.6-5.09-5.38-.21-.22-.63-.36-.86-.07-.92,1.16-1.85,2.31-2.77,3.47-.23.29-.09.74.14.98,1.73,1.78,3.44,3.58,5.13,5.39.21.23.63.37.86.08.91-1.16,1.83-2.32,2.74-3.48h0Z"/><path class="cls-4" d="m96.68,85.01c.23-.29.09-.76-.14-1.01-1.7-1.82-3.41-3.62-5.14-5.4-.22-.23-.65-.35-.88-.06-.96,1.2-1.92,2.39-2.88,3.59-.23.29-.1.75.14.99,1.74,1.79,3.46,3.6,5.17,5.42.22.24.65.37.88.07.95-1.2,1.9-2.41,2.85-3.61h0Z"/><path class="cls-4" d="m91.26,91.88c.23-.3.1-.77-.13-1.02-1.71-1.83-3.44-3.64-5.19-5.44-.23-.23-.66-.34-.89-.05-.98,1.22-1.96,2.45-2.94,3.68-.24.3-.11.76.13,1.01,1.75,1.8,3.49,3.63,5.21,5.46.23.24.66.36.89.06.97-1.23,1.94-2.47,2.91-3.7h0Z"/><path class="cls-4" d="m85.74,98.9c.23-.3.11-.77-.13-1.03-1.73-1.84-3.47-3.66-5.23-5.47-.23-.24-.66-.35-.9-.05-.98,1.24-1.97,2.48-2.95,3.73-.24.3-.1.77.14,1.02,1.77,1.82,3.52,3.65,5.25,5.5.23.24.66.36.89.06.97-1.25,1.95-2.5,2.92-3.75h0Z"/><path class="cls-4" d="m80.24,105.98c.23-.3.1-.78-.14-1.04-1.74-1.85-3.5-3.68-5.27-5.5-.23-.24-.67-.35-.9-.05-.97,1.24-1.94,2.49-2.91,3.74-.23.3-.09.77.15,1.02,1.78,1.82,3.54,3.66,5.3,5.52.22.24.66.37.89.06.96-1.25,1.91-2.5,2.88-3.75h0Z"/><path class="cls-4" d="m74.84,113.05c.23-.31.08-.78-.16-1.03-1.76-1.85-3.53-3.69-5.31-5.52-.23-.23-.67-.36-.9-.05-.94,1.23-1.88,2.47-2.81,3.71-.23.3-.07.77.17,1.02,1.8,1.82,3.58,3.66,5.35,5.51.22.23.65.37.88.07.92-1.24,1.85-2.48,2.78-3.71h0Z"/><path class="cls-4" d="m69.66,120.03c.22-.3.06-.77-.18-1.02-1.78-1.85-3.57-3.68-5.38-5.5-.22-.23-.66-.37-.89-.06-.9,1.21-1.79,2.43-2.67,3.65-.22.31-.04.77.2,1,1.82,1.81,3.63,3.64,5.43,5.47.21.22.64.38.86.08.87-1.21,1.74-2.42,2.62-3.63h0Z"/><path class="cls-4" d="m64.8,126.83c.21-.31.02-.77-.21-1-1.81-1.83-3.63-3.65-5.46-5.45-.22-.21-.65-.37-.87-.07-.83,1.18-1.66,2.37-2.48,3.56-.21.31,0,.76.24.98,1.85,1.79,3.7,3.58,5.53,5.39.2.2.64.39.84.09.8-1.17,1.6-2.34,2.41-3.5h0Z"/><path class="cls-4" d="m60.35,133.36c.2-.3-.03-.75-.26-.97-1.84-1.8-3.7-3.58-5.57-5.35-.21-.2-.65-.38-.85-.08-.75,1.14-1.5,2.27-2.23,3.42-.2.3.06.74.28.95,1.9,1.74,3.78,3.49,5.66,5.26.19.18.63.4.82.1.71-1.12,1.42-2.23,2.15-3.33h0Z"/><path class="cls-4" d="m56.68,139.01c.16-.24-.21-.64-.37-.79-1.89-1.73-3.78-3.45-5.68-5.15-.13-.12-.6-.46-.75-.19-.59,1.01-1.09,2.07-1.55,3.14-.14.33.12.75.36.95,1.91,1.58,3.81,3.17,5.7,4.77.18.15.62.35.76.04.45-.96.95-1.89,1.53-2.78h0Z"/><path class="cls-4" d="m53.87,145.04c.11-.34-.13-.76-.39-.96-1.9-1.52-3.8-3.03-5.71-4.54-.24-.19-.63-.22-.73.13-.46,1.55-.81,3.14-1.03,4.74-.05.38.17.82.48,1.04,1.9,1.35,3.81,2.69,5.71,4.04.24.17.6.17.65-.18.22-1.45.58-2.88,1.03-4.27h0Z"/><path class="cls-4" d="m52.57,153.4c-.01-.37-.27-.78-.58-.98-1.89-1.27-3.79-2.53-5.68-3.79-.28-.19-.55-.04-.53.3.07,1.73.35,3.46.88,5.12.12.37.42.77.76.97,1.86,1.11,3.71,2.22,5.57,3.33.26.16.45.05.36-.26-.48-1.51-.72-3.09-.77-4.67h0Z"/><path class="cls-4" d="m135.67,141.53c.17-.23.21-.61,0-.83-1.24-1.26-2.46-2.55-3.67-3.84-.21-.23-.56-.16-.73.07-.91,1.23-1.83,2.46-2.74,3.69-.18.25-.19.65.02.88,1.22,1.3,2.46,2.58,3.72,3.85.21.21.54.09.7-.13.9-1.23,1.79-2.47,2.69-3.7h0Z"/><path class="cls-4" d="m130.57,148.53c.17-.23.21-.62,0-.84-1.27-1.27-2.52-2.55-3.75-3.85-.21-.23-.56-.16-.74.08-.92,1.23-1.83,2.47-2.75,3.71-.18.25-.19.65.03.88,1.25,1.3,2.52,2.59,3.8,3.86.22.21.55.1.71-.13.9-1.24,1.8-2.47,2.7-3.71h0Z"/><path class="cls-4" d="m125.51,155.51c.17-.23.2-.62-.02-.83-1.3-1.27-2.57-2.55-3.83-3.86-.21-.22-.56-.17-.74.07-.89,1.21-1.78,2.42-2.67,3.64-.18.25-.16.65.06.87,1.28,1.3,2.57,2.59,3.89,3.85.21.21.54.11.7-.11.87-1.21,1.74-2.42,2.61-3.63h0Z"/><path class="cls-4" d="m120.64,162.31c.17-.23.16-.61-.05-.81-1.33-1.26-2.63-2.54-3.92-3.84-.21-.21-.56-.19-.73.06-.84,1.16-1.68,2.32-2.51,3.48-.18.25-.13.63.09.84,1.31,1.29,2.64,2.57,3.99,3.82.21.19.53.14.69-.09.81-1.15,1.63-2.31,2.45-3.46h0Z"/><path class="cls-4" d="m116.13,168.74c.16-.23.12-.59-.09-.78-1.36-1.25-2.7-2.52-4.03-3.81-.2-.2-.54-.21-.71.03-.76,1.08-1.52,2.16-2.27,3.24-.17.25-.07.61.13.8,1.35,1.27,2.72,2.53,4.11,3.76.19.17.51.17.67-.05.73-1.07,1.46-2.13,2.19-3.19h0Z"/><path class="cls-4" d="m112.13,174.62c.15-.23.05-.56-.14-.73-1.41-1.22-2.79-2.46-4.15-3.73-.19-.17-.52-.24-.69,0-.65.96-1.3,1.93-1.95,2.9-.16.24,0,.58.19.74,1.4,1.24,2.81,2.46,4.25,3.65.17.14.49.21.63-.01.61-.95,1.23-1.89,1.85-2.83h0Z"/><path class="cls-4" d="m108.81,179.77c.13-.22-.04-.52-.21-.66-1.46-1.17-2.89-2.38-4.31-3.6-.16-.14-.5-.27-.65-.04-.52.82-1.04,1.65-1.54,2.48-.13.22.1.53.26.67,1.45,1.19,2.93,2.36,4.42,3.49.14.11.47.25.59.03.46-.8.94-1.59,1.43-2.38h0Z"/><path class="cls-4" d="m106.73,183.31c.04-.08-.36-.34-.4-.38-1.51-1.12-3.01-2.26-4.48-3.43-.04-.03-.45-.36-.49-.28-.14.26-.26.54-.35.83-.05.15.33.41.42.48,1.51,1.11,3.04,2.19,4.59,3.25.03.02.44.29.47.19.06-.23.14-.45.24-.66h0Z"/><path class="cls-4" d="m106.36,184.83c0-.16-.33-.36-.43-.43-1.57-1.02-3.11-2.06-4.65-3.12-.04-.03-.47-.31-.49-.15-.06.52-.05,1.05.01,1.57.03.22.35.43.51.53,1.57.96,3.15,1.91,4.74,2.83.03.02.44.23.41.07-.08-.42-.12-.86-.1-1.29h0Z"/><path class="cls-4" d="m106.9,187.55c-.08-.2-.36-.37-.54-.47-1.6-.87-3.19-1.77-4.77-2.68-.05-.03-.47-.23-.4-.02.27.76.63,1.48,1.06,2.17.15.24.44.43.68.55,1.57.82,3.15,1.63,4.75,2.42.08.04.4.15.26-.05-.4-.6-.76-1.24-1.04-1.91h0Z"/><path class="cls-4" d="m54.86,161.57c-.23-.34-.56-.67-.91-.87-1.82-1.04-3.57-2.34-5.39-3.38-.33-.19-.27.1-.13.3,1.13,1.65,4.3,3.7,5.92,4.88.38.28.78.53,1.19.76,1.72.94,2.02,1.99,3.74,2.93.36.2-.02-.09-.13-.18-1.5-1.11-3.23-2.9-4.28-4.45h0Z"/><path class="cls-4" d="m109.48,191.43c-.19-.21-.45-.39-.71-.51-1.57-.76-3.14-1.53-4.69-2.32-.13-.07-.39-.13-.2.08.85.95,1.8,1.81,2.79,2.61.28.22.59.43.91.58,1.49.75,2.98,1.49,4.47,2.22.14.07.11-.05,0-.15-.91-.79-1.78-1.62-2.59-2.52h0Z"/><path class="cls-4" d="m156.31,112.07c.14-.23.15-.59-.03-.8-1.07-1.32-2.12-2.66-3.17-3.99-.16-.21-.45-.22-.59.02-.54.94-1.11,1.84-1.71,2.74-.14.21-.02.55.12.73,1.06,1.32,2.12,2.64,3.19,3.95.12.15.37.25.5.05.58-.89,1.13-1.79,1.68-2.7h0Z"/><path class="cls-4" d="m153.18,116.95c.14-.2.07-.51-.08-.69-1.09-1.3-2.17-2.6-3.24-3.92-.13-.17-.42-.3-.57-.08-.63.92-1.27,1.83-1.92,2.74-.16.23-.09.58.08.78,1.1,1.3,2.21,2.59,3.34,3.88.15.18.42.19.56-.01.62-.9,1.23-1.79,1.83-2.7h0Z"/><path class="cls-4" d="m149.56,122.23c.15-.21.13-.54-.05-.74-1.14-1.27-2.26-2.56-3.38-3.86-.17-.19-.47-.24-.63-.02-.75,1.04-1.5,2.07-2.25,3.11-.17.23-.13.61.05.82,1.14,1.29,2.29,2.58,3.45,3.84.18.2.47.14.62-.06.73-1.03,1.45-2.05,2.18-3.09h0Z"/><path class="cls-4" d="m145.32,128.2c.16-.22.17-.57-.02-.78-1.18-1.26-2.34-2.55-3.49-3.84-.19-.21-.51-.2-.68.02-.83,1.13-1.66,2.26-2.49,3.39-.18.24-.17.63.03.85,1.17,1.29,2.35,2.57,3.55,3.83.2.21.51.11.66-.1.81-1.13,1.62-2.26,2.43-3.38h0Z"/><path class="cls-4" d="m128.01,41.91c.12-.28-.12-.7-.29-.91-1.51-1.91-3.03-3.81-4.56-5.71-.1-.13-.49-.5-.63-.21-.44.91-.91,1.81-1.41,2.7-.15.27.11.7.28.9,1.58,1.87,3.14,3.75,4.71,5.64.1.12.49.49.63.22.45-.86.87-1.73,1.26-2.62h0Z"/><path class="cls-4" d="m159.37,82.11c0-.43-.27-.91-.54-1.25-8.98-11.47-17.82-23.03-26.84-34.47-.12-.16-.69-.72-.87-.3-2.26,5.54-6,10.43-9.72,15.28-.3.39.07,1.04.34,1.35,10.31,12.16,19.98,24.72,29.82,37.18.23.28.69.45.91.07,3.28-5.56,6.92-11.44,6.91-17.86h0Z"/><path class="cls-4" d="m125.5,46.75c.15-.26-.11-.68-.27-.87-1.58-1.87-3.17-3.74-4.76-5.6-.11-.13-.51-.49-.67-.23-.51.84-1.05,1.66-1.59,2.47-.17.25.11.68.27.86,1.62,1.84,3.23,3.69,4.83,5.55.11.13.51.49.68.24.53-.8,1.04-1.6,1.53-2.42h0Z"/><path class="cls-4" d="m122.51,51.29c.18-.25-.1-.67-.25-.85-1.61-1.85-3.22-3.69-4.85-5.53-.12-.14-.53-.48-.7-.23-.58.81-1.17,1.61-1.77,2.41-.18.25.08.67.25.85,1.64,1.82,3.26,3.65,4.86,5.49.13.15.52.48.71.23.59-.79,1.18-1.58,1.75-2.38h0Z"/><path class="cls-4" d="m119.12,55.82c.19-.25-.07-.68-.23-.86-1.61-1.84-3.23-3.67-4.87-5.48-.14-.15-.54-.46-.73-.21-.64.84-1.29,1.68-1.93,2.52-.19.25.05.67.22.86,1.64,1.8,3.26,3.63,4.86,5.46.14.16.54.47.74.22.65-.83,1.29-1.67,1.94-2.5h0Z"/><path class="cls-4" d="m165.99,90.24c-.02-.27-.19-.57-.36-.78-1.14-1.43-2.29-2.87-3.42-4.31-.07-.09-.33-.33-.32-.06.04.95-.01,1.9-.14,2.84-.04.27.13.59.3.79,1.15,1.41,2.31,2.82,3.48,4.22.09.1.35.31.39.05.12-.91.15-1.84.09-2.76h0Z"/><path class="cls-4" d="m165.4,95.42c.07-.25-.09-.57-.24-.75-1.17-1.39-2.33-2.78-3.48-4.18-.1-.12-.38-.32-.44-.06-.26.95-.58,1.88-.94,2.79-.1.25.04.59.2.78,1.15,1.38,2.3,2.75,3.46,4.12.12.14.38.27.48.03.38-.89.71-1.8.96-2.72h0Z"/><path class="cls-4" d="m163.28,100.6c.12-.23.02-.56-.14-.74-1.15-1.36-2.3-2.72-3.43-4.09-.13-.15-.41-.3-.53-.05-.48.97-.99,1.93-1.52,2.88-.14.24-.03.6.13.8,1.11,1.36,2.23,2.7,3.36,4.05.15.17.41.22.54,0,.55-.93,1.09-1.88,1.59-2.84h0Z"/><path class="cls-4" d="m160.09,106.05c.14-.22.1-.56-.07-.76-1.11-1.34-2.22-2.68-3.32-4.03-.15-.18-.43-.26-.57-.03-.62,1.04-1.24,2.08-1.86,3.12-.15.25-.09.62.08.84,1.07,1.34,2.14,2.67,3.22,4,.16.2.43.16.56-.05.65-1.03,1.31-2.06,1.96-3.1h0Z"/><path class="cls-4" d="m140.64,134.69c.16-.22.2-.6,0-.81-1.21-1.26-2.4-2.54-3.58-3.83-.2-.22-.54-.18-.71.05-.89,1.19-1.77,2.39-2.66,3.58-.18.25-.19.64.03.87,1.2,1.29,2.41,2.58,3.64,3.84.21.21.53.09.69-.12.87-1.2,1.74-2.39,2.61-3.59h0Z"/><path class="cls-6" d="m42.33,499.42c-22.09-11.13-29.66-20.96-33.54-27.14-6.38-10.18-15.02-40.85.06-67.11,3.12-5.43,5.75-12.3,5.2-17.85-.03-.32-1.86-9.31-.74-13.9,0,0,8.3,8.93,19.62-2.21,7.36-7.24,9.99-29.76,10.17-40.38.27-15.95.06-25.15-18.81-20.77,5.16-12.83,2.28-17.25,1.46-19.57-8.6-24.17-7.87-40.57,2.74-57.28,7.23-11.37,21.03-18.63,39.43-22.9,12.03-2.79,30.25-4.64,41.78,2.38,5.53,27.31,2.49,58.7-2.71,85.66-6.86,35.6-17.61,70.32-29.16,104.46-11.01,32.54-23.02,64.68-35.5,96.61h0Z"/><path class="cls-6" d="m42.12,499.85c-22.22-11.19-29.83-21.09-33.73-27.32-6.43-10.26-15.14-41.15.05-67.61,3.07-5.34,5.68-12.1,5.14-17.56-.03-.32-1.86-9.41-.73-14.07.04-.17.17-.31.35-.35.17-.04.35,0,.47.14,0,0,2.86,3.07,7.49,3.23,3.13.11,7.05-1.12,11.45-5.45,2.9-2.85,5.03-8.11,6.58-14.06,2.35-9.03,3.34-19.64,3.45-25.98.1-5.69.14-10.52-.73-14.16-.55-2.33-1.48-4.16-3.05-5.4-2.67-2.1-7.11-2.44-14.45-.74-.17.04-.36-.02-.47-.16s-.15-.32-.08-.49c5.07-12.61,2.26-16.95,1.45-19.23-8.66-24.35-7.9-40.87,2.79-57.7,7.28-11.46,21.18-18.81,39.72-23.11,12.14-2.81,30.51-4.65,42.13,2.44.11.07.19.18.22.32,5.54,27.37,2.5,58.82-2.71,85.85-6.87,35.62-17.62,70.36-29.18,104.52-11.02,32.54-23.03,64.7-35.51,96.64-.05.13-.15.23-.27.27-.13.05-.27.04-.39-.02h0Zm-.04-1.1c12.4-31.77,24.34-63.74,35.3-96.1,11.55-34.12,22.29-68.82,29.15-104.39,5.18-26.84,8.22-58.07,2.75-85.27-11.44-6.83-29.37-4.97-41.24-2.21-18.25,4.23-31.96,11.4-39.13,22.69-10.54,16.58-11.23,32.87-2.69,56.86.82,2.31,3.65,6.66-1.13,19.07,7.23-1.56,11.67-1.01,14.37,1.12,1.72,1.36,2.78,3.36,3.39,5.93.88,3.7.85,8.61.76,14.4-.11,6.4-1.1,17.1-3.48,26.21-1.6,6.14-3.84,11.56-6.84,14.5-4.66,4.58-8.83,5.84-12.15,5.72-3.69-.13-6.34-1.95-7.5-2.93-.75,4.71.88,12.63.91,12.93.56,5.63-2.1,12.62-5.26,18.13-14.97,26.07-6.41,56.51-.07,66.62,3.83,6.1,11.29,15.77,32.88,26.73h0Z"/><path class="cls-7" d="m15.68,377.66c-1.23-1.36-2.02-2.77-2.36-4.25m10.98-63.36c.77-.96,1.87-1.94,3.71-2.83"/><path class="cls-5" d="m42.87,498.04c-20.97-10.8-26.75-19.47-30.55-25.52-6.38-10.18-15.01-40.85.06-67.11,3.12-5.43,4.55-12.43,4-17.97-.03-.32-1.86-5.28-.71-9.77.59.45,13.69,4.83,21.67-6.2,6.06-8.37,9.04-29.78,9.3-40.4.44-17.81-4.52-28.29-18.64-23.84,4.06-10.17,2.11-14.19,1.29-16.5-8.6-24.17-7.48-40.33,2.74-57.28,4.84-8.02,13.86-17.13,32.06-22.15,15.54-4.29,36.03-6.93,48.55-.04,6.14,27.89-.32,59.45-5.65,87.1-6.86,35.6-17.61,70.32-29.16,104.46-10.85,32.07-22.68,63.75-34.96,95.23h0Z"/><path class="cls-5" d="m15.95,377.27s.18.08.34.14c.55.2,1.57.5,2.89.72,4.44.73,12.33.57,17.78-6.95,6.01-8.31,8.95-29.58,9.21-40.13.15-6.17-.34-11.45-1.66-15.52-1.28-3.96-3.33-6.76-6.35-8.04-2.6-1.11-5.9-1.1-10.01.2-.18.05-.37,0-.5-.13-.13-.13-.16-.33-.09-.5,3.98-9.97,2.09-13.89,1.28-16.16-8.66-24.34-7.51-40.62,2.78-57.69,4.88-8.09,13.98-17.3,32.35-22.37,15.65-4.32,36.3-6.94,48.91,0,.12.07.21.18.24.32,6.16,27.95-.31,59.59-5.65,87.3-6.87,35.62-17.62,70.36-29.18,104.52-10.86,32.07-22.68,63.77-34.97,95.25-.05.13-.15.23-.28.27-.13.05-.27.04-.39-.02-21.1-10.87-26.91-19.6-30.73-25.69-6.43-10.26-15.14-41.15.05-67.61,3.07-5.34,4.48-12.23,3.94-17.68-.03-.32-1.87-5.37-.7-9.94.04-.16.16-.28.31-.33.15-.05.31-.03.44.06h0Zm26.67,120.09c12.21-31.31,23.96-62.83,34.76-94.72,11.55-34.12,22.29-68.82,29.15-104.39,5.31-27.52,11.76-58.92,5.71-86.7-12.44-6.71-32.66-4.04-48,.19-18.04,4.98-26.99,13.99-31.78,21.94-10.15,16.83-11.24,32.88-2.7,56.87.82,2.29,2.73,6.22-.94,15.93,3.94-1.09,7.15-.98,9.73.12,2.61,1.12,4.58,3.25,5.97,6.26,2.02,4.38,2.81,10.64,2.62,18.21-.26,10.69-3.3,32.24-9.39,40.67-5.73,7.92-14.04,8.1-18.71,7.34-1.34-.22-2.38-.53-3.01-.75-.86,4.26.82,8.76.85,9.06.56,5.63-.89,12.74-4.06,18.25-14.97,26.07-6.41,56.51-.07,66.62,3.74,5.97,9.44,14.49,29.89,25.11h0Z"/><path class="cls-2" d="m42.64,498.63c-5.85-2.74-14.33-8.18-21.07-14.53-9.3-8.77-12.3-17.16-14.12-22.65,4.54-2.61,10.73-6.05,15.72-7.73,9.6-3.25,22.94-4.04,32.96-3.48,1.2.07,2.93.32,4.67.62-5.9,15.99-11.97,31.91-18.16,47.77h0Z"/><path class="cls-2" d="m42.43,499.08c-5.89-2.76-14.42-8.23-21.2-14.62-9.39-8.85-12.41-17.31-14.25-22.85-.07-.22.02-.47.23-.59,4.57-2.63,10.79-6.08,15.81-7.77,9.65-3.26,23.07-4.07,33.15-3.51,1.21.07,2.96.32,4.73.63.15.02.27.11.35.24.07.13.09.28.04.42-5.9,15.99-11.97,31.91-18.17,47.78-.05.13-.15.23-.28.28-.13.05-.27.05-.4-.01h0Zm-.06-1.14c6.05-15.51,11.99-31.07,17.76-46.7-1.52-.25-2.98-.46-4.02-.51-9.97-.56-23.24.23-32.78,3.45-4.83,1.63-10.79,4.92-15.27,7.49,1.82,5.44,4.86,13.57,13.86,22.05,6.51,6.14,14.66,11.42,20.45,14.21h0Z"/><path class="cls-1" d="m36.18,387.19c-.38-2.58,0-4.06.8-5.28,2.18-3.36,6.32-2.61,7.16,1.14.64,2.87-3.88,6.44-6.12,2.67-.15-.26.92,6.06,5.14,6.7,4.13.63,7.44-2,8.99-5.06,3.27-6.43-.05-17-.06-24.97,0-7.08,1.8-13.1,4.62-19.56,2.35-5.38,8.93-9,13.95-5.32,3.88,2.85,3,8.37-1.59,7.92-4.17-.41-3.88-6.23-.35-6.64.13-.02-6.14-3.08-10.15,4.71-2.54,4.93-.47,12.98-.18,20.38.34,8.68.24,17.7-4.67,25.33-2.76,4.29-6.27,6.28-10.89,5.68-2.99-.39-6.05-3.73-6.64-7.7h0Z"/><path class="cls-3" d="m101.87,321.99c-10.2.58-28.15.42-29.79-.43-1.14-.59,12.85-222,12.85-222h17.83s1.23,40.12,2.58,86.22c-3.14-2.6-6.28-5.18-9.42-7.73,3.07,5.01,6.11,11.26,8.32,16.76.52,1.29,1.01,2.59,1.48,3.9.98,33.69,1.97,68.83,2.56,92.77-.41,2.3-.84,4.6-1.27,6.87-1.53,7.92-3.25,15.8-5.13,23.64h0Z"/><path class="cls-3" d="m101.91,322.74c-8.19.46-21.36.45-27.15,0-1.59-.13-2.67-.32-3.03-.51-.1-.05-.35-.2-.42-.62-.08-.46-.04-2.71.1-6.43,1.44-36.3,12.76-215.66,12.76-215.66.02-.39.35-.7.75-.7h17.83c.4,0,.74.32.75.73,0,0,1.23,40.12,2.58,86.22,0,.29-.16.57-.42.7-.26.13-.58.09-.81-.1-2.08-1.72-4.16-3.43-6.24-5.13,2.35,4.27,4.58,9.02,6.31,13.31.52,1.3,1.02,2.61,1.49,3.93.03.07.04.15.04.23.98,33.69,1.97,68.84,2.56,92.77,0,.05,0,.1-.01.15-.41,2.31-.84,4.6-1.28,6.88-1.53,7.93-3.25,15.82-5.13,23.67-.08.32-.36.56-.69.57h0Zm-29.12-1.74c.17.03.39.06.64.1.92.12,2.27.22,3.91.29,6.3.29,16.81.26,23.93-.11,1.82-7.65,3.5-15.34,4.99-23.07.43-2.25.85-4.51,1.26-6.78-.59-23.9-1.58-58.95-2.56-92.57-.45-1.26-.93-2.52-1.43-3.76-2.2-5.46-5.22-11.68-8.26-16.65-.19-.31-.13-.71.15-.96.28-.24.68-.25.97-.02,2.72,2.21,5.43,4.43,8.15,6.68-1.23-41.78-2.34-78.29-2.51-83.84h-16.4c-.77,12.21-11.33,179.95-12.72,214.92-.11,2.76-.12,4.95-.12,5.77h0Z"/><path class="cls-5" d="m84.92,100.55c0-5.53.74-25.87,1.26-29.5.82-5.63.74-11.84,9.01-11.84,3.78,0,5.63,2.48,6.55,5.2,1,2.99.88,6.26.93,6.86.64,8.16.1,29.54.03,29.54-1.63.11-15.65-.18-17.78-.27h0Z"/><path class="cls-5" d="m84.17,100.56c0-5.55.74-25.96,1.27-29.61.29-2,.47-4.07.94-5.91.51-1.99,1.35-3.73,2.92-4.93,1.33-1.01,3.2-1.65,5.89-1.65,4.17,0,6.25,2.71,7.26,5.71,1.03,3.06.92,6.42.96,7.04.57,7.37.2,25.47.07,29.02-.01.41-.03.66-.04.7-.1.59-.6.62-.69.63-1.64.11-15.72-.18-17.86-.27-.4-.02-.72-.35-.72-.75h0Zm17.82-.46c.13-3.74.5-21.49-.07-28.75-.05-.59.09-3.78-.89-6.68-.82-2.44-2.46-4.69-5.84-4.69-2.63,0-4.35.65-5.48,1.77-1.14,1.13-1.69,2.7-2.05,4.43-.33,1.6-.49,3.32-.74,5-.5,3.47-1.2,22.3-1.25,28.67,3.22.1,13.35.3,16.31.26h0Z"/><path class="cls-3" d="m88.96,90.07s1.02-16.47,1.18-17.88c.14-1.23.48-7.86,5.43-7.75,4.37.1,3.99,7.04,4.01,7.94.04,2.04.5,17.74.5,17.74l-11.12-.05h0Z"/><path class="cls-3" d="m88.46,90.04s1.02-16.49,1.18-17.91c.09-.77.26-3.54,1.49-5.62.87-1.48,2.26-2.62,4.45-2.57,1.98.04,3.12,1.3,3.75,2.89.86,2.18.74,4.98.75,5.53.04,2.04.5,17.74.5,17.74,0,.14-.05.27-.14.36-.09.1-.22.15-.36.15l-11.11-.05c-.14,0-.27-.06-.36-.16-.09-.1-.14-.23-.13-.37h0Zm1.03-.47l10.07.05c-.08-2.73-.44-15.41-.48-17.23-.01-.52.13-3.15-.68-5.18-.49-1.22-1.32-2.23-2.84-2.26-2.23-.05-3.4,1.44-4.04,3.06-.7,1.74-.81,3.65-.88,4.25-.14,1.26-.97,14.5-1.14,17.33h0Z"/><polygon class="cls-5" points="85.62 72.57 73.29 72.81 73.3 76.97 85.46 76.94 85.62 72.57 85.62 72.57"/><path class="cls-5" d="m86.12,72.59l-.16,4.37c0,.27-.23.48-.5.48l-12.16.02c-.13,0-.26-.05-.35-.15-.09-.09-.15-.22-.15-.35v-4.15c0-.27.21-.49.49-.5l12.33-.25c.14,0,.27.05.37.15.1.1.15.23.14.37h0Zm-1.02.49l-11.31.23v3.16s11.18-.02,11.18-.02l.12-3.36h0Z"/><polygon class="cls-5" points="84.19 91.65 71.86 91.9 71.87 96.05 84.03 96.03 84.19 91.65 84.19 91.65"/><path class="cls-5" d="m84.69,91.67l-.16,4.37c0,.27-.23.48-.5.48l-12.16.02c-.13,0-.26-.05-.35-.15-.09-.09-.15-.22-.15-.35v-4.15c0-.27.21-.5.49-.5l12.33-.25c.14,0,.27.05.37.15.1.1.15.23.14.37h0Zm-1.02.49l-11.31.23v3.16s11.18-.02,11.18-.02l.12-3.36h0Z"/><polygon class="cls-5" points="102.84 66.66 115.16 66.9 115.16 71.05 103 71.03 102.84 66.66 102.84 66.66"/><path class="cls-5" d="m102.85,66.16l12.33.25c.27,0,.49.23.49.5v4.15c0,.13-.06.26-.15.35-.09.09-.22.15-.35.15l-12.16-.02c-.27,0-.49-.21-.5-.48l-.16-4.37c0-.14.05-.27.14-.37.1-.1.23-.15.37-.15h0Zm.51,1.01l.12,3.36,11.18.02v-3.16s-11.3-.23-11.3-.23h0Z"/><polygon class="cls-5" points="103.19 83.12 117.41 83.37 117.4 87.52 103.37 87.49 103.19 83.12 103.19 83.12"/><path class="cls-5" d="m103.2,82.62l14.22.25c.27,0,.49.23.49.5v4.15c0,.13-.06.26-.15.35-.09.09-.22.15-.35.15l-14.03-.02c-.27,0-.49-.21-.5-.48l-.19-4.37c0-.14.05-.27.14-.37.1-.1.23-.15.37-.15h0Zm.51,1.01l.14,3.36,13.05.02v-3.16s-13.19-.23-13.19-.23h0Z"/><path class="cls-2" d="m118.05,85.86c-.47-1.79-.99-3.58-.43-5.43.72-2.35,3.29-2.44,5.03-1.68,2.72,1.2,6.8,6.63,6.81,7.72,0,.96-2.86,5.54-5.78,6.88-2.75,1.26-5.88.27-6.26-1.34-.48-2.02.05-4.18.64-6.15h0Z"/><path class="cls-2" d="m117.53,85.85c-.48-1.83-.96-3.67-.38-5.57.81-2.69,3.72-2.86,5.7-1.99,1.97.87,4.64,3.86,6.06,5.98.44.65.76,1.23.91,1.63.09.23.13.43.13.57,0,.33-.26,1.04-.76,1.91-1.07,1.83-3.18,4.45-5.31,5.43-1.79.82-3.73.75-5.08.19-1-.41-1.69-1.1-1.87-1.88-.49-2.06,0-4.26.61-6.27h0Zm1,.15c-.57,1.88-1.09,3.95-.63,5.89.12.51.62.91,1.28,1.18,1.14.47,2.78.51,4.29-.18,1.96-.9,3.88-3.33,4.86-5.02.25-.42.43-.8.54-1.09.05-.13.09-.24.09-.31,0-.08-.05-.21-.12-.36-.15-.34-.41-.79-.75-1.28-1.33-1.98-3.8-4.81-5.64-5.62-1.49-.66-3.73-.66-4.35,1.36-.53,1.76-.01,3.46.43,5.16.02.09.02.18,0,.27h0Z"/><path class="cls-2" d="m116.07,68.66c-.51-1.92-1.08-3.83-.47-5.81.78-2.52,3.61-2.61,5.51-1.79,2.98,1.28,7.46,7.09,7.47,8.26,0,1.02-3.13,5.92-6.35,7.36-3.02,1.35-6.45.28-6.87-1.44-.53-2.16.05-4.47.7-6.58h0Z"/><path class="cls-2" d="m115.55,68.65c-.53-1.96-1.06-3.92-.42-5.95.88-2.84,4.04-3.03,6.19-2.1,2.15.93,5.08,4.12,6.63,6.38.48.7.83,1.31,1,1.74.1.25.14.45.14.6,0,.35-.28,1.11-.83,2.03-1.17,1.95-3.48,4.75-5.81,5.79-1.95.87-4.06.8-5.53.21-1.09-.44-1.83-1.16-2.03-1.98-.54-2.2,0-4.55.67-6.71h0Zm1,.16c-.62,2.02-1.2,4.23-.69,6.31.14.56.69,1,1.43,1.29,1.27.51,3.08.55,4.75-.19,2.16-.97,4.28-3.58,5.36-5.39.27-.45.48-.86.6-1.17.06-.15.1-.26.1-.34,0-.09-.06-.23-.14-.4-.17-.37-.46-.84-.83-1.38-1.46-2.12-4.18-5.16-6.2-6.03-1.66-.72-4.16-.72-4.84,1.48-.59,1.89-.02,3.71.47,5.53.02.09.02.19,0,.28h0Z"/><path class="cls-2" d="m72.46,69.69c-3.69-1.09-14.21,2.2-14.27,4.59-.06,2.42,10.63,6.98,14.09,5.21.75-.38,1.13-9.52.17-9.8h0Z"/><path class="cls-2" d="m72.6,69.21c.19.05.4.22.55.57.16.39.28,1.14.34,2.05.14,2.29-.07,5.73-.42,7.16-.08.32-.17.55-.27.69-.09.13-.19.22-.28.26-1.04.54-2.7.57-4.53.23-2.62-.48-5.64-1.67-7.69-2.93-.92-.57-1.64-1.15-2.08-1.69-.36-.45-.53-.89-.52-1.27,0-.39.2-.81.57-1.22.45-.49,1.18-1,2.11-1.47,2.05-1.05,5.04-1.98,7.68-2.39,1.81-.28,3.46-.3,4.55.02h0Zm-.63,9.88c.04-.12.17-.53.23-.92.27-1.58.4-4.35.28-6.28-.04-.74-.24-1.56-.28-1.75-.98-.25-2.42-.2-4,.04-2.54.39-5.41,1.28-7.38,2.29-.8.41-1.44.83-1.83,1.25-.18.2-.31.38-.31.57,0,.19.12.4.3.62.38.47,1.02.97,1.82,1.47,1.96,1.21,4.84,2.35,7.34,2.8,1.53.28,2.91.32,3.81-.1h0Z"/><path class="cls-2" d="m70.97,89.46c-3.28-1.39-14.46,2.58-14.4,4.46.06,1.84,10.51,6.07,14.36,4.72.79-.28,1.06-8.75.05-9.18h0Z"/><path class="cls-2" d="m71.16,89c.13.06.26.15.37.31.14.2.26.53.35.97.25,1.21.29,3.34.19,5.16-.07,1.24-.22,2.34-.41,2.93-.15.45-.39.68-.57.74-1.14.4-2.83.36-4.67.02-2.66-.49-5.65-1.58-7.69-2.68-1.07-.58-1.89-1.17-2.29-1.66-.25-.3-.36-.6-.37-.85,0-.27.1-.57.36-.89.41-.5,1.26-1.08,2.38-1.63,2.48-1.23,6.3-2.43,9.18-2.69,1.31-.12,2.43-.04,3.18.27h0Zm-.52,9.21c.04-.1.12-.33.17-.55.12-.57.21-1.38.26-2.27.1-1.73.07-3.76-.17-4.9-.05-.24-.16-.51-.19-.58-.86-.34-2.27-.28-3.86-.01-2.56.42-5.56,1.42-7.6,2.43-.84.42-1.51.83-1.91,1.21-.09.08-.16.16-.21.24-.04.05-.07.09-.07.14,0,.13.13.25.29.41.39.39,1.04.82,1.84,1.25,1.96,1.05,4.84,2.1,7.4,2.58,1.58.29,3.03.37,4.04.06h0Z"/><path class="cls-5" d="m88.96,41.92c-1.45,1.15-3.59,4.3-5.46,4.77-1.5.38-2.96.62-4.02,2.04-1.43,1.92-1.49,4,0,5.87,2.03,2.54,5.13,2.25,5.44,2.04,3.79-2.68,2.58-10.43,4.04-14.71h0Z"/><path class="cls-5" d="m89.43,42.08c-.87,2.55-.77,6.34-1.38,9.54-.43,2.29-1.23,4.28-2.84,5.42-.12.09-.57.23-1.22.23-1.25,0-3.36-.43-4.91-2.36-1.64-2.06-1.59-4.36,0-6.48,1.14-1.53,2.68-1.82,4.3-2.23.68-.17,1.39-.75,2.09-1.43,1.17-1.13,2.3-2.55,3.19-3.25.17-.14.42-.14.6-.02.18.13.26.36.18.57h0Zm-4.77,14.12c1.4-1.01,2.03-2.77,2.4-4.76.49-2.58.54-5.53.98-7.94-.59.64-1.23,1.37-1.89,2-.85.82-1.72,1.47-2.54,1.68-1.39.35-2.76.54-3.74,1.85-1.28,1.72-1.35,3.58-.01,5.26,1.3,1.63,3.08,1.98,4.12,1.98.3,0,.61-.06.67-.07h0Z"/><path class="cls-2" d="m92.14,33.82c-.99,4.86-3.6,7.56-3.98,15.52-.32,6.79-3.18,7.23-3.24,7.42-1.7,5.34,4.72,6.15,5.78,6.04,4.59-.47,3.8-6.54,3.81-11.05.02-9.16-.03-15.05,0-17.85,0-.12-2.36-.09-2.38-.09h0Z"/><path class="cls-2" d="m92.14,33.07s2.06-.02,2.47.07c.59.12.66.61.66.77-.03,2.8.02,8.69,0,17.84,0,2.78.26,6.15-.53,8.49-.61,1.81-1.78,3.08-3.96,3.3-.47.05-1.9-.05-3.33-.59-1.33-.5-2.64-1.39-3.23-2.8-.4-.94-.49-2.13-.02-3.63.03-.11.14-.33.46-.51.46-.25,2.48-1.18,2.75-6.73.38-8.02,3-10.74,3.99-15.63.07-.35.38-.6.74-.6h0Zm-6.58,24.18c-.26.95-.21,1.71.05,2.33.43,1.02,1.41,1.61,2.38,1.98,1.13.43,2.27.54,2.64.5,1.91-.19,2.65-1.61,2.96-3.39.37-2.1.17-4.7.18-6.91.02-8.46-.02-14.13,0-17.16-.31,0-.7-.01-1.03-.02-1.07,4.45-3.47,7.23-3.83,14.8-.19,3.93-1.21,5.87-2.08,6.86-.45.51-.99.86-1.26,1.01h0Z"/><path class="cls-2" d="m101.28,41.92c1.45,1.15,3.59,4.3,5.46,4.77,1.5.38,2.96.62,4.02,2.04,1.43,1.92,1.49,4,0,5.87-2.03,2.54-5.13,2.25-5.44,2.04-3.79-2.68-2.58-10.43-4.04-14.71h0Z"/><path class="cls-2" d="m101.59,41.52c.88.7,2.01,2.12,3.19,3.25.7.68,1.41,1.26,2.09,1.43,1.61.4,3.16.7,4.3,2.23,1.58,2.12,1.63,4.42-.01,6.48-1.54,1.93-3.66,2.36-4.91,2.36-.65,0-1.09-.14-1.22-.23-1.62-1.14-2.41-3.13-2.84-5.42-.6-3.2-.51-6.99-1.38-9.54-.07-.21,0-.44.18-.57.18-.13.43-.12.6.02h0Zm3.98,14.67c.06.01.37.07.67.07,1.05,0,2.83-.36,4.12-1.98,1.33-1.67,1.27-3.54,0-5.26-.98-1.32-2.35-1.5-3.74-1.85-.82-.2-1.7-.86-2.54-1.68-.66-.63-1.3-1.36-1.89-2,.44,2.41.49,5.36.98,7.94.38,1.99,1.01,3.76,2.41,4.76h0Z"/><path class="cls-5" d="m98.1,33.82c.99,4.86,3.6,7.56,3.98,15.52.32,6.79,3.18,7.23,3.24,7.42,1.7,5.34-4.72,6.15-5.79,6.04-4.59-.47-3.8-6.54-3.81-11.05-.02-9.16.03-15.05,0-17.85,0-.12,2.37-.08,2.38-.09h0Z"/><path class="cls-5" d="m98.08,33.07c.11,0,.23.02.33.07.22.1.37.3.42.53,1,4.89,3.61,7.61,3.99,15.63.26,5.55,2.28,6.48,2.75,6.73.32.17.42.4.46.51.48,1.49.38,2.68-.02,3.63-.59,1.41-1.9,2.29-3.23,2.8-1.42.54-2.85.64-3.33.59-2.18-.22-3.35-1.49-3.96-3.3-.79-2.35-.52-5.71-.53-8.49-.02-9.16.03-15.05,0-17.84,0-.16.07-.65.66-.77.37-.08,2.07-.07,2.41-.07.02,0,.04,0,.04,0h0Zm-1.61,1.53c.01,3.02-.03,8.7,0,17.16,0,2.21-.19,4.81.18,6.91.31,1.78,1.05,3.2,2.96,3.39.38.04,1.51-.07,2.65-.5.96-.36,1.95-.96,2.38-1.98.26-.62.3-1.38.05-2.33-.28-.16-.82-.5-1.26-1.01-.87-.99-1.9-2.93-2.09-6.86-.36-7.57-2.76-10.34-3.83-14.8-.32,0-.71.01-1.02.02h0Z"/><path class="cls-2" d="m89.13,368.04c-.37,1.21-.75,2.41-1.12,3.62l-20.95-.29,3.98-3.6,18.09.27h0Z"/><path class="cls-2" d="m89.61,368.19c-.37,1.21-.75,2.41-1.12,3.62-.07.21-.26.35-.48.35l-20.95-.29c-.21,0-.39-.13-.46-.32-.07-.19-.02-.41.13-.55l3.98-3.6c.09-.09.22-.13.34-.13l18.09.27c.16,0,.3.08.4.21.09.13.12.29.07.44h0Zm-1.15.34l-17.22-.25-2.89,2.61,19.3.27c.27-.87.55-1.75.82-2.62h0Z"/><path class="cls-1" d="m88.38,89.91c.03-.28.27-.48.55-.45.27.03.48.27.45.55-5.46,54.88-15.19,261.83-13.81,324.86,0,.28-.21.5-.49.51-.28,0-.5-.21-.51-.49-1.39-63.06,8.35-270.08,13.81-324.98h0Z"/><path class="cls-1" d="m91.83,82.24c.01-.28.24-.49.52-.48.28,0,.49.24.48.52-1.82,51.03-8.3,226.62-8.69,308,0,.28-.23.5-.5.5-.28,0-.5-.23-.5-.5.4-81.39,6.87-256.99,8.69-308.03h0Z"/><path class="cls-1" d="m99.66,89.96c0-.28.22-.5.5-.5.28,0,.5.22.5.5.23,39.72,2.13,146.46,2.8,230.13,0,.28-.22.5-.5.5s-.5-.22-.5-.5c-.66-83.66-2.57-190.4-2.8-230.13h0Z"/><path class="cls-1" d="m96.05,82.25c0-.28.23-.5.51-.49.28,0,.5.23.49.51-.62,46.12-2.32,187.29-3.43,275.93,0,.28-.23.5-.51.49-.28,0-.5-.23-.49-.51,1.11-88.64,2.81-229.81,3.43-275.93h0Z"/><path class="cls-1" d="m52.82,161.9c5.74,4.31,10.77,8.65,16.35,12.97,18.44,14.28,36.56,28.57,54.8,42.86,2.18.73,4.49,1.45,7.24,2.11,1.55.38,3.28.77,5.5,1.04,1.17.14,2.49.23,3.92.25,1.45.02,2.95-.03,4.36.05,1.63.09,2.53.6,3.46.83-16.23-12.25-30.87-26.39-45.41-38.69-3.62-3.07-6.61-5.45-9.98-8.05,0,0-.02-.02-.03-.02-1.64-1.27-3.37-2.59-5.3-4.07-2.18-1.69-4.41-3.39-7.53-5.04-1.44-.77-3.02-1.71-6.5-2.29-2.05-.34-4.56-.34-7.23-.39-1.25-.02-2.47-.08-3.73-.09-1.14,0-2.61.09-3.7,0-1.05-.07-1.78-.28-2.39-.43-1.37-.34-2.6-.7-3.83-1.05h0Z"/><path class="cls-4" d="m71.88,175.49c-.71.02-.32.58,0,.82,13.25,10.23,26.35,20.62,39.46,30.99.54.43,1.29.76,1.98.95,7.33,1.94,16,.86,22.8,3.88.45.2.33,0,.05-.22-11.28-8.8-22.31-17.83-33.18-27.01-.7-.59-1.43-1.16-2.18-1.7-9.23-6.75-17.43-7.96-28.94-7.71h0Z"/><path class="cls-4" d="m116.75,211.17c-.21-.06-.64-.1-.29.17,1.8,1.42,3.6,2.83,5.4,4.24.4.31.91.54,1.39.69,1.89.59,3.79,1.13,5.71,1.59.28.07.32-.1.1-.28-1.86-1.46-3.71-2.92-5.55-4.39-.33-.27-.76-.48-1.18-.58-1.87-.43-3.73-.92-5.57-1.46h0Z"/><path class="cls-4" d="m126.26,213.41c-.33-.04-.03.3.07.38,1.84,1.48,3.69,2.95,5.55,4.4.29.23.68.45,1.05.51,1.14.16,2.28.26,3.43.3.32.01-.1-.37-.17-.43-1.94-1.5-3.87-3-5.79-4.52-.25-.2-.62-.45-.96-.46-1.07-.02-2.13-.07-3.19-.19h0Z"/><path class="cls-4" d="m132.02,213.61c-.3,0,.15.4.21.45,1.93,1.52,3.86,3.03,5.8,4.53.24.19.61.44.93.44.9,0,1.81,0,2.71.04.28.02-.15-.37-.2-.41-1.88-1.46-3.76-2.93-5.63-4.41-.25-.2-.61-.45-.94-.49-.95-.11-1.91-.15-2.87-.16h0Z"/><path class="cls-4" d="m58.75,165.2c-.35-.08-.64.04-.28.33,2.32,1.85,4.6,3.73,6.9,5.6.39.31.95.57,1.45.6,1.66.1,3.32.1,4.98.05.44-.01.1-.39-.08-.52-2.35-1.69-4.73-3.36-7.11-5.02-.34-.23-.82-.48-1.24-.48-1.57.02-3.08-.22-4.61-.56h0Z"/><path class="cls-4" d="m68.6,165.76c-.31,0-.33.3-.11.46,2.24,1.64,4.48,3.29,6.69,4.98.29.22.81.5,1.18.53,1.05.07,2.11.1,3.17.2.35.03,0-.39-.09-.47-1.85-1.75-3.71-3.48-5.6-5.18-.27-.25-.68-.49-1.06-.5-1.39-.03-2.78,0-4.18-.02h0Z"/><path class="cls-4" d="m76.37,166.1c-.37-.06-.16.27-.01.4,1.85,1.75,3.69,3.53,5.5,5.32.28.28.68.56,1.07.65,1.63.38,3.21.93,4.74,1.61.26.11.33-.04.14-.23-1.91-1.89-3.82-3.77-5.77-5.61-.34-.32-.76-.61-1.18-.79-1.44-.62-2.94-1.09-4.49-1.36h0Z"/><path class="cls-4" d="m137.66,214.29c-.32-.09.03.25.11.31,1.82,1.43,3.64,2.85,5.46,4.27.26.2.59.42.92.48,1.1.2,2.18.51,3.23.88.28.1.1-.1-.03-.2-1.68-1.25-3.35-2.51-5.02-3.77-.31-.24-.66-.46-1.02-.62-1.18-.55-2.4-1.02-3.65-1.36h0Z"/><path class="cls-4" d="m85.73,170.09c-.19-.11-.41-.15-.23.02,2.03,1.87,4.01,3.8,6,5.72.42.41.91.76,1.4,1.06,2.54,1.6,4.95,3.4,7.27,5.3.09.07.89.72.47.33-1.77-1.68-3.53-3.38-5.33-5.03-.3-.27-.6-.54-.9-.81-.53-.48-1.06-.96-1.63-1.39-1.86-1.4-5.66-4.39-7.05-5.21h0Z"/><path class="cls-1" d="m64.51,536.18l-9.11-1.67c1.86-4.92,4.28-11.82,6.12-16.75.27-.73.26-1.98-.7-2.18-4.8-1.03-9.6-2.07-14.41-3.09-.98-.21-1.87.8-2.19,1.62-1.96,5.05-4.51,12.07-6.49,17.11,0,.02-.01.04-.02.05l-7.44-1.37c16.77-41.96,33.03-84.19,47.55-127.1,11.56-34.14,22.3-68.86,29.16-104.46,6.49-33.68,10.31-71.02-2.77-103.54-2.21-5.5-5.25-11.75-8.32-16.76,17.31,14.05,34.6,28.97,51.9,43.44,5.62,4.71,11.24,9.36,16.87,13.93,9.06,9.68,17.18,20.37,23.92,32.02,28.98,50.04,27.84,111.44,20.25,167.68-1.33,9.85-2.88,19.65-4.6,29.43-2.45,13.99-5.24,27.91-8.25,41.78-3.75,17.33-7.85,34.58-12.13,51.76l-5.2-.96c1.09-4.17,2.64-10.07,3.45-13.29.14-.58.06-1.58-.66-1.74-3.56-.8-7.12-1.6-10.68-2.4-.75-.17-1.32.7-1.48,1.31-.89,3.36-2.54,9.43-3.71,13.71l-8.45-1.55c3.12-10.9,7.11-24.45,9.72-34.39.23-.89.25-1.85-.07-2.73-.23-.62-.69-1.32-1.5-1.54-26.77-7.51-53.62-14.81-80.55-21.93-.94-.25-1.92.13-2.61.64-.97.71-1.59,1.7-1.94,2.7-4.43,12.56-10.82,27.41-15.68,40.26h0Z"/><path class="cls-4" d="m166.87,518.8c.23-.89.25-1.85-.07-2.73-.23-.62-.69-1.32-1.5-1.54-26.77-7.51-53.62-14.81-80.55-21.93-.94-.25-1.92.13-2.61.64-.97.71-1.59,1.7-1.94,2.7-4.77,13.51-6.24,15.35-11.2,28.81,28.3,7.73,66.52,17.18,89.95,22.21,3.22-11.47,4.91-16.64,7.92-28.15h0Z"/><path class="cls-4" d="m122.79,223.63c-.12-.47-.53-.93-.92-1.21-2.52-1.84-5.04-3.67-7.56-5.49-.21-.15-.7-.35-.6.11.38,1.71.72,3.42,1.02,5.14.08.48.51.95.89,1.23,2.61,1.85,5.21,3.71,7.8,5.57.23.16.72.34.62-.14-.38-1.75-.8-3.49-1.25-5.22h0Z"/><path class="cls-4" d="m179.36,266.7c-.31-.69-.85-1.38-1.48-1.87-16.09-12.51-32.29-24.92-48.74-37.07-.39-.29-1.02-.46-.83.19,3.29,11.69,4.89,23.71,5.39,35.73.03.79.64,1.66,1.34,2.14,18.67,12.66,37,25.7,55.07,39,.59.43.97.12.86-.48-2.44-12.84-6.2-25.5-11.61-37.63h0Z"/><path class="cls-4" d="m192.45,313.21c-.11-.77-.62-1.64-1.31-2.14-18.36-13.36-36.98-26.44-55.95-39.12-.59-.39-1.31-.32-1.31.43,0,15.33-1.53,30.65-3.87,45.84-.14.89.37,1.98,1.23,2.49,21.11,12.38,41.85,25.24,62.24,38.51.74.48,1.26-.1,1.27-.76.42-15.1-.14-30.25-2.31-45.25h0Z"/><path class="cls-4" d="m194.3,369.16c.05-.83-.36-1.89-1.16-2.39-20.71-13.17-41.77-25.92-63.19-38.19-.85-.49-1.66,0-1.81.82-3.54,19.72-8.25,39.27-13.55,58.68-.26.96.04,2.34,1.13,2.84,23.78,10.86,47.29,22.18,70.49,33.96.94.48,1.58-.48,1.7-1.17,3.02-18.09,5.34-36.28,6.39-54.54h0Z"/><path class="cls-4" d="m185.64,436.58c.16-.86-.09-2.14-1.05-2.61-23.6-11.47-47.5-22.49-71.65-33.05-1.13-.49-2.09.51-2.34,1.38-7.18,24.92-15.21,49.65-23.66,74.26-.34,1-.32,2.76,1.07,3.16,27.1,7.79,54.1,15.83,81,24.13,1.16.36,1.95-.97,2.15-1.76,5.45-21.73,10.42-43.56,14.49-65.52h0Z"/><path class="cls-4" d="m138.55,443.15c.08-.3,0-.73-.32-.85-9.24-3.7-18.49-7.34-27.77-10.93-.34-.13-.65.17-.74.48-1.36,4.48-2.74,8.96-4.15,13.43-.1.31-.03.78.32.9,9.5,3.4,18.98,6.84,28.43,10.34.33.12.62-.2.7-.49,1.2-4.29,2.37-8.58,3.52-12.88h0Z"/><path class="cls-4" d="m125,233.64c-.09-.49-.51-.98-.91-1.26-2.63-1.88-5.28-3.75-7.92-5.61-.24-.17-.75-.34-.68.15.26,1.82.48,3.66.67,5.49.05.5.48,1.01.88,1.28,2.72,1.88,5.44,3.78,8.16,5.68.26.18.77.33.7-.17-.26-1.86-.56-3.71-.9-5.55h0Z"/><path class="cls-4" d="m126.53,244.29c-.05-.51-.48-1.03-.89-1.32-2.75-1.91-5.51-3.82-8.27-5.71-.27-.19-.8-.32-.77.18.14,1.95.24,3.91.31,5.86.02.52.45,1.06.87,1.34,2.84,1.91,5.67,3.83,8.5,5.77.29.2.81.3.78-.21-.14-1.98-.32-3.95-.53-5.92h0Z"/><path class="cls-4" d="m127.37,255.63c-.02-.53-.45-1.09-.88-1.37-2.87-1.94-5.74-3.87-8.62-5.79-.31-.21-.85-.3-.85.23.02,2.09,0,4.18-.05,6.27-.01.54.42,1.12.86,1.4,2.96,1.93,5.9,3.88,8.84,5.83.33.22.86.28.86-.26-.02-2.1-.08-4.21-.17-6.31h0Z"/><path class="cls-4" d="m127.52,267.73c0-.55-.42-1.14-.86-1.43-2.98-1.96-5.96-3.91-8.96-5.85-.35-.23-.9-.27-.93.27-.11,2.24-.25,4.47-.42,6.71-.04.56.39,1.17.84,1.46,3.07,1.94,6.13,3.9,9.18,5.87.37.24.91.24.94-.31.1-2.24.17-4.48.21-6.73h0Z"/><path class="cls-4" d="m126.96,280.63c.04-.57-.38-1.19-.85-1.49-3.09-1.97-6.19-3.93-9.3-5.88-.39-.24-.96-.23-1.01.33-.24,2.39-.51,4.78-.8,7.17-.07.59.35,1.23.83,1.53,3.18,1.95,6.36,3.91,9.53,5.88.41.26.97.19,1.02-.37.23-2.39.42-4.78.59-7.17h0Z"/><path class="cls-4" d="m125.69,294.38c.07-.59-.34-1.25-.83-1.55-3.21-1.97-6.42-3.93-9.64-5.88-.44-.26-1.02-.18-1.1.39-.37,2.56-.77,5.12-1.19,7.67-.1.61.3,1.29.81,1.59,3.3,1.94,6.59,3.89,9.88,5.86.45.27,1.02.14,1.1-.43.35-2.55.67-5.1.97-7.65h0Z"/><path class="cls-4" d="m123.69,309.05c.09-.61-.29-1.3-.81-1.61-3.32-1.96-6.65-3.91-9.99-5.84-.48-.28-1.08-.13-1.18.46-.5,2.74-1.03,5.47-1.58,8.19-.13.62.25,1.35.8,1.66,3.42,1.92,6.83,3.85,10.23,5.8.5.28,1.08.08,1.19-.51.48-2.71.93-5.43,1.36-8.15h0Z"/><path class="cls-4" d="m120.95,324.68c.12-.63-.24-1.36-.8-1.67-3.44-1.94-6.89-3.86-10.35-5.77-.53-.29-1.14-.06-1.27.54-.64,2.92-1.3,5.84-1.98,8.75-.15.64.2,1.41.79,1.72,3.54,1.89,7.07,3.79,10.6,5.71.54.29,1.15.02,1.27-.59.61-2.89,1.19-5.79,1.75-8.69h0Z"/><path class="cls-4" d="m117.47,341.34c.14-.64-.19-1.42-.78-1.73-3.57-1.9-7.14-3.79-10.72-5.66-.57-.3-1.21,0-1.36.63-.77,3.12-1.57,6.23-2.39,9.34-.17.66.15,1.47.77,1.78,3.67,1.84,7.32,3.7,10.98,5.57.59.3,1.21-.06,1.36-.67.74-3.08,1.46-6.16,2.15-9.25h0Z"/><path class="cls-4" d="m113.23,359.07c.17-.66-.14-1.48-.76-1.79-3.7-1.85-7.4-3.69-11.1-5.52-.62-.3-1.28.08-1.46.72-.91,3.32-1.85,6.64-2.81,9.96-.19.68.1,1.54.76,1.85,3.8,1.78,7.59,3.58,11.37,5.39.63.3,1.28-.13,1.45-.77.87-3.28,1.72-6.56,2.56-9.84h0Z"/><path class="cls-4" d="m108.22,377.92c.19-.67-.09-1.54-.75-1.85-3.83-1.79-7.66-3.56-11.5-5.32-.67-.31-1.36.17-1.55.82-1.06,3.54-2.14,7.08-3.23,10.61-.21.69.04,1.61.74,1.91,3.93,1.71,7.86,3.43,11.78,5.17.68.3,1.36-.22,1.54-.87,1.01-3.48,2-6.97,2.96-10.46h0Z"/><path class="cls-4" d="m102.44,397.96c.21-.68-.03-1.61-.74-1.91-3.97-1.71-7.94-3.4-11.92-5.08-.72-.3-1.43.26-1.65.93-1.2,3.77-2.42,7.53-3.66,11.28-.23.7-.02,1.68.73,1.97,4.08,1.62,8.15,3.25,12.22,4.9.73.29,1.43-.31,1.64-.98,1.14-3.7,2.27-7.4,3.38-11.11h0Z"/><path class="cls-4" d="m95.87,419.23c.22-.7.03-1.68-.72-1.97-4.12-1.61-8.24-3.21-12.37-4.8-.77-.29-1.51.36-1.75,1.05-1.35,4-2.71,8-4.09,11.99-.25.71-.08,1.75.72,2.04,4.23,1.51,8.45,3.04,12.67,4.58.78.28,1.51-.41,1.74-1.11,1.28-3.92,2.55-7.85,3.8-11.78h0Z"/><path class="cls-4" d="m88.5,441.8c.24-.7.08-1.75-.71-2.03-4.27-1.49-8.55-2.98-12.83-4.46-.82-.28-1.6.46-1.85,1.18-1.5,4.25-3.01,8.49-4.54,12.73-.26.72-.14,1.83.71,2.1,4.39,1.39,8.77,2.79,13.16,4.2.83.27,1.6-.52,1.84-1.24,1.42-4.16,2.83-8.32,4.23-12.49h0Z"/><path class="cls-4" d="m208.03,335.88c-.06-.52-.38-1.11-.81-1.42-2.42-1.75-4.85-3.5-7.28-5.25-.38-.27-.68-.06-.64.39.23,2.37.43,4.75.6,7.13.04.54.37,1.15.81,1.46,2.48,1.74,4.95,3.49,7.42,5.24.39.28.67,0,.64-.43-.21-2.38-.45-4.76-.73-7.13h0Z"/><path class="cls-4" d="m209.25,349.49c-.03-.53-.34-1.15-.79-1.46-2.49-1.75-4.98-3.5-7.48-5.24-.4-.28-.73-.03-.71.43.11,2.49.19,4.97.24,7.46.01.55.33,1.19.78,1.5,2.54,1.73,5.08,3.47,7.62,5.22.42.29.72-.02.7-.47-.09-2.48-.21-4.96-.37-7.44h0Z"/><path class="cls-4" d="m209.79,363.68c0-.54-.3-1.19-.76-1.5-2.56-1.74-5.12-3.47-7.69-5.2-.43-.29-.77,0-.77.48,0,2.6-.04,5.2-.11,7.81-.01.56.28,1.23.76,1.54,2.62,1.71,5.23,3.43,7.83,5.15.44.29.76-.06.77-.52.02-2.59.01-5.17-.02-7.76h0Z"/><path class="cls-4" d="m209.69,378.48c.02-.55-.27-1.23-.74-1.53-2.63-1.72-5.27-3.42-7.91-5.12-.46-.29-.82.06-.84.53-.12,2.72-.28,5.45-.46,8.17-.04.56.24,1.27.74,1.58,2.69,1.68,5.38,3.36,8.06,5.05.46.29.81-.11.83-.57.13-2.7.24-5.4.32-8.1h0Z"/><path class="cls-4" d="m208.95,393.93c.04-.56-.22-1.26-.72-1.57-2.71-1.68-5.42-3.35-8.13-5.01-.48-.3-.87.11-.91.59-.24,2.85-.5,5.7-.8,8.54-.06.57.2,1.31.72,1.61,2.77,1.63,5.53,3.27,8.29,4.91.49.29.86-.16.9-.63.24-2.81.46-5.63.64-8.45h0Z"/><path class="cls-4" d="m207.59,410.05c.06-.56-.18-1.3-.7-1.6-2.79-1.63-5.58-3.25-8.38-4.86-.51-.29-.92.16-.97.66-.35,2.98-.73,5.96-1.13,8.93-.08.58.16,1.35.7,1.64,2.85,1.57,5.7,3.15,8.55,4.73.52.29.91-.22.96-.7.35-2.94.67-5.87.96-8.82h0Z"/><path class="cls-4" d="m205.62,426.86c.08-.57-.14-1.34-.68-1.63-2.87-1.56-5.75-3.12-8.63-4.66-.54-.29-.97.23-1.04.73-.46,3.12-.95,6.23-1.45,9.34-.09.58.12,1.39.68,1.67,2.94,1.49,5.88,2.99,8.82,4.5.55.28.96-.28,1.03-.77.45-3.06.87-6.13,1.28-9.19h0Z"/><path class="cls-4" d="m203.07,444.4c.09-.57-.11-1.38-.67-1.66-2.97-1.48-5.94-2.95-8.91-4.41-.58-.28-1.02.29-1.11.81-.57,3.26-1.16,6.52-1.77,9.77-.11.59.08,1.43.67,1.7,3.04,1.4,6.08,2.81,9.11,4.22.58.27,1.01-.35,1.1-.85.55-3.19,1.07-6.39,1.58-9.59h0Z"/><path class="cls-4" d="m199.96,462.69c.1-.57-.07-1.41-.66-1.68-3.07-1.38-6.14-2.75-9.21-4.12-.61-.27-1.08.37-1.18.89-.67,3.41-1.37,6.81-2.08,10.21-.12.59.04,1.47.66,1.73,3.14,1.29,6.29,2.59,9.42,3.9.61.25,1.07-.42,1.17-.93.64-3.33,1.27-6.66,1.88-10h0Z"/><path class="cls-4" d="m196.28,481.75c.12-.58-.03-1.45-.65-1.7-3.18-1.26-6.35-2.52-9.53-3.78-.64-.25-1.14.45-1.25.99-.78,3.56-1.57,7.11-2.38,10.66-.13.59,0,1.51.66,1.75,3.26,1.17,6.51,2.34,9.76,3.51.64.23,1.12-.49,1.24-1.02.74-3.47,1.46-6.94,2.16-10.42h0Z"/><path class="cls-4" d="m80.33,465.7c.25-.71.14-1.82-.71-2.08-4.44-1.36-8.88-2.71-13.32-4.06-.87-.26-1.69.57-1.96,1.32-1.65,4.51-3.31,9.01-4.99,13.5-.27.73-.2,1.9.71,2.15,4.56,1.25,9.12,2.5,13.67,3.77.88.24,1.68-.63,1.95-1.38,1.57-4.4,3.12-8.81,4.66-13.22h0Z"/><path class="cls-4" d="m71.34,491.01c.26-.72.2-1.9-.7-2.13-4.62-1.21-9.23-2.41-13.85-3.61-.93-.24-1.78.68-2.07,1.46-1.8,4.77-3.62,9.54-5.44,14.3-.28.74-.26,1.99.7,2.21,4.74,1.09,9.48,2.18,14.22,3.27.93.21,1.77-.75,2.06-1.52,1.71-4.66,3.41-9.32,5.1-13.98h0Z"/><path class="cls-4" d="m187.35,522.3c.14-.58.04-1.53-.65-1.73-3.42-.98-6.84-1.95-10.27-2.92-.71-.2-1.26.61-1.4,1.2-.98,3.88-1.96,7.75-2.97,11.62-.15.59-.07,1.6.66,1.78,3.51.86,7.03,1.72,10.54,2.58.71.17,1.24-.65,1.38-1.23.92-3.76,1.82-7.53,2.71-11.3h0Z"/><path class="cls-4" d="m192.08,501.61c.13-.58,0-1.49-.65-1.72-3.29-1.13-6.59-2.26-9.88-3.38-.68-.23-1.2.53-1.33,1.09-.88,3.71-1.77,7.43-2.68,11.14-.15.59-.04,1.56.66,1.77,3.38,1.02,6.76,2.05,10.14,3.08.68.21,1.18-.57,1.31-1.12.83-3.61,1.64-7.23,2.44-10.85h0Z"/><path class="cls-4" d="m191.34,275.8c-.22-.45-.57-.91-.96-1.21-2.09-1.63-4.17-3.26-6.26-4.89-.27-.21-.44-.08-.29.24.87,1.89,1.71,3.8,2.5,5.72.19.47.55.94.95,1.25,2.14,1.65,4.27,3.31,6.4,4.97.29.23.44.06.29-.28-.84-1.95-1.72-3.88-2.64-5.8h0Z"/><path class="cls-4" d="m196.15,286.85c-.18-.47-.53-.95-.93-1.26-2.16-1.67-4.31-3.34-6.47-5-.32-.24-.5-.1-.36.26.74,1.98,1.44,3.97,2.11,5.97.16.48.52.98.92,1.29,2.21,1.69,4.41,3.38,6.61,5.07.34.26.49.07.36-.3-.71-2.03-1.46-4.04-2.24-6.03h0Z"/><path class="cls-4" d="m200.21,298.35c-.15-.48-.5-.99-.9-1.3-2.22-1.7-4.45-3.4-6.68-5.1-.33-.25-.55-.11-.43.29.61,2.07,1.18,4.15,1.72,6.24.13.5.48,1.02.89,1.33,2.28,1.71,4.55,3.43,6.82,5.15.34.26.54.06.43-.33-.58-2.11-1.2-4.2-1.85-6.29h0Z"/><path class="cls-4" d="m203.53,310.35c-.12-.5-.46-1.03-.87-1.34-2.29-1.73-4.59-3.45-6.88-5.17-.34-.25-.6-.1-.5.32.48,2.17.93,4.34,1.34,6.52.1.51.44,1.07.86,1.38,2.34,1.73,4.68,3.47,7.01,5.21.36.27.59.05.5-.35-.45-2.19-.94-4.38-1.47-6.55h0Z"/><path class="cls-4" d="m107.42,188.94c-.25-.38-.59-.73-.95-1.02-2-1.63-4-3.26-6-4.88-.16-.13-.47-.28-.27.04.81,1.34,1.6,2.7,2.36,4.07.21.39.56.75.91,1.02,2.1,1.66,4.19,3.32,6.28,4.99.17.14.51.31.29-.05-.85-1.41-1.72-2.8-2.62-4.18h0Z"/><path class="cls-4" d="m154.3,227.59c-.5-.57-1.05-1.13-1.65-1.62-13.47-11.08-26.86-22.22-40.35-33.28-.33-.27-.67-.4-.34.08,6.06,8.9,10.81,18.44,14.21,28.36.23.68.82,1.35,1.43,1.81,16.11,12.04,31.99,24.31,47.78,36.67.51.4.66.15.42-.32-5.76-11.24-13-21.88-21.51-31.7h0Z"/><path class="cls-4" d="m112.23,196.92c-.22-.4-.58-.78-.94-1.06-2.14-1.69-4.28-3.37-6.42-5.05-.16-.13-.54-.33-.36.05.71,1.41,1.39,2.85,2.04,4.29.18.41.55.8.91,1.07,2.23,1.71,4.46,3.43,6.69,5.15.18.13.57.33.38-.07-.73-1.48-1.49-2.95-2.29-4.39h0Z"/><path class="cls-4" d="m116.4,205.33c-.19-.43-.57-.83-.94-1.11-2.27-1.74-4.54-3.48-6.82-5.21-.17-.13-.6-.34-.44.07.6,1.5,1.17,3.02,1.7,4.55.15.44.54.85.91,1.12,2.36,1.76,4.72,3.53,7.07,5.31.19.14.62.34.46-.09-.62-1.56-1.26-3.11-1.95-4.64h0Z"/><path class="cls-4" d="m119.92,214.21c-.16-.45-.55-.88-.93-1.15-2.39-1.79-4.79-3.58-7.2-5.36-.19-.14-.65-.35-.52.09.49,1.6.95,3.21,1.37,4.83.12.46.53.9.9,1.17,2.49,1.81,4.97,3.62,7.44,5.45.2.15.67.34.54-.11-.5-1.65-1.03-3.29-1.6-4.92h0Z"/><path class="cls-4" d="m164.26,235.64c-.34-.37-.7-.74-1.09-1.05-1.76-1.43-3.51-2.86-5.26-4.3-.17-.14-.1.05.03.19,1.41,1.6,2.8,3.23,4.15,4.88.32.39.68.77,1.07,1.08,1.82,1.47,3.63,2.94,5.45,4.41.22.18.12-.07-.02-.23-1.41-1.69-2.86-3.35-4.33-4.98h0Z"/><path class="cls-4" d="m172.24,245.12c-.31-.39-.66-.78-1.06-1.09-1.85-1.48-3.69-2.97-5.54-4.46-.18-.14-.18.03-.06.2,1.28,1.66,2.52,3.35,3.73,5.07.29.41.65.81,1.04,1.12,1.9,1.52,3.81,3.04,5.71,4.56.19.15.2-.04.06-.24-1.27-1.75-2.56-3.47-3.9-5.16h0Z"/><path class="cls-4" d="m179.4,254.96c-.28-.41-.63-.82-1.02-1.13-1.93-1.54-3.86-3.08-5.79-4.61-.21-.17-.28,0-.14.21,1.14,1.73,2.24,3.49,3.31,5.27.26.43.62.85,1.01,1.16,1.99,1.57,3.97,3.14,5.96,4.71.23.19.29-.01.14-.25-1.12-1.81-2.28-3.6-3.47-5.36h0Z"/><path class="cls-4" d="m185.77,265.18c-.25-.43-.6-.86-.99-1.17-2.01-1.59-4.02-3.17-6.03-4.76-.23-.18-.37-.05-.21.23,1.01,1.81,1.97,3.64,2.91,5.49.23.45.58.89.98,1.2,2.06,1.61,4.12,3.23,6.18,4.85.25.2.37.02.22-.26-.98-1.88-2-3.73-3.05-5.57h0Z"/><path class="cls-4" d="m206.13,322.85c-.09-.51-.42-1.07-.84-1.38-2.36-1.75-4.72-3.49-7.08-5.22-.36-.26-.64-.09-.57.35.36,2.27.68,4.54.97,6.82.07.53.41,1.11.84,1.42,2.41,1.74,4.81,3.49,7.21,5.24.37.27.63.04.57-.39-.33-2.28-.69-4.56-1.09-6.83h0Z"/></g></svg>